<svg id="Layer_1" data-name="Layer 1" xmlns="http://www.w3.org/2000/svg" viewBox="0 0 1426.72 663.05"><defs><style>.cls-1{fill:#fff;}.cls-2,.cls-5,.cls-6{fill:none;}.cls-2{stroke:#272525;stroke-width:3.36px;}.cls-2,.cls-6{stroke-miterlimit:10;}.cls-3{fill:#272525;}.cls-4{fill:#b32025;}.cls-5,.cls-6{stroke:#b32025;}.cls-5{stroke-linejoin:round;stroke-width:1.52px;}.cls-6{stroke-width:1.57px;}</style></defs><title>CHESS Tower Logo FV</title><path class="cls-1" d="M1366.66,362c0-9.67-6-17.51-13.39-17.51s-13.39,7.84-13.39,17.51,7.21,17.26,14.61,17.26S1366.66,371.71,1366.66,362Z"/><path class="cls-1" d="M1107.58,572.19c11.67,2.85,34.44,5.25,34.44,5.25l0-1.64c0-1.7,0-3.32,0-5,0-6.42-.1-12.83-.12-19.25l-.09-27.6-.1-31.49c0-10.3,1-20.59.95-30.89l-.08-25.84-.06-16.3V416s.36-174.84.33-178.56a30.78,30.78,0,0,1,1.53-9.38c.66-1.94-.17-5.88-.17-5.88l-12.83-20.85-20-44.5L1090.93,102l-9.16-28.17S1076,57,1073.81,55s-3.93,4.34-3.93,4.34l-6.41,17.33-9.33,30.57-10.83,29.6-14.17,31.5-24.83,46c-2.34,4.32-4.9,5.07-7.84,11.91s-2.08,8.52-2.08,8.52c6.75,10.08,5.68,18.32,5.68,18.32v4l0,11.23-.06,17.4-.09,22.48-.1,26.5-.12,29.42-.12,31.27-.12,32-.13,31.73c0,10.12.77,20,.73,30.1l-.11,27.87c0,8.11.43,16.21.4,24.32l-.08,19.71-.05,14,0,4.52c0,.61,0,2.36,0,2.69,10.65-2.72,19.61-6.38,29.71-10.69,9.25-3.95,26.42-9.62,28.61-9.74,10.72-.59,21.39,3.44,31.75,5.92C1096,569.25,1101.78,570.77,1107.58,572.19Z"/><path class="cls-2" d="M1143.82,223.75c-6-1.49-81.49-13.45-85.22-13.83s-65,24.67-65,24.67"/><path class="cls-3" d="M1017.1,326c.38-8.14-3-57.06.38-60.55s6.17-.71,6.17,6.92c0,9.33,1.12,51.95,1.12,51.95Z"/><path class="cls-3" d="M1028.32,323c.37-8.33-3-58.44.37-62s6.17-.72,6.17,7.09c0,9.55,1.12,53.21,1.12,53.21Z"/><path class="cls-3" d="M1039.14,320c.37-8.41-3-59,.37-62.56s6.23-.73,6.23,7.14c0,9.64,1.13,53.69,1.13,53.69Z"/><path class="cls-3" d="M1092.63,315.7V261c0-3.74-1.31-7.85-6.17-7.85s-5,5.79-5,7.85-1.31,56.62,0,56.62,11.21,1.13,11.21.19Z"/><path class="cls-3" d="M1106.09,315.73V261.6c0-3.69-1.31-7.76-6.17-7.76s-5.05,5.73-5.05,7.76-1.31,56,0,56,11.22,1.11,11.22.19Z"/><path class="cls-3" d="M1120.88,317V262.9c0-3.7-1.31-7.76-6.17-7.76s-5,5.72-5,7.76-1.31,56,0,56,11.21,1.11,11.21.19Z"/><path class="cls-3" d="M1010.56,273.47a29.17,29.17,0,0,1-.26-6.27,16.92,16.92,0,0,1,1.49-6.25,7.78,7.78,0,0,1,2.14-2.69,6.3,6.3,0,0,1,3.32-1.28,9.45,9.45,0,0,1,3.41.35c.56.13,1.06.35,1.59.52s1,.45,1.5.67l-1.5.68a15.56,15.56,0,0,1,1.66-4,10.26,10.26,0,0,1,3-3.35,6.65,6.65,0,0,1,4.58-1.1,9.35,9.35,0,0,1,2.24.51c.7.26,1.34.63,2,.94l-1.49.43a16.52,16.52,0,0,1,2.1-2.9,10.73,10.73,0,0,1,2.84-2.31,5.58,5.58,0,0,1,3.84-.63,6.54,6.54,0,0,1,3.25,1.88,11.1,11.1,0,0,1,1.14,1.36l.5.73a7.23,7.23,0,0,1,.44.82,11.35,11.35,0,0,1,.77,3.42,38.74,38.74,0,0,1-.1,6.73,62,62,0,0,0-.79-6.6,11.22,11.22,0,0,0-1-3,4.38,4.38,0,0,0-.4-.62l-.5-.61a9.52,9.52,0,0,0-1.1-1.1,5,5,0,0,0-2.52-1.3,3.92,3.92,0,0,0-2.59.61,12,12,0,0,0-4,4.54l-.48.87-1-.44c-.56-.24-1.11-.56-1.68-.76a7,7,0,0,0-1.7-.37,4.66,4.66,0,0,0-3.15.77,8,8,0,0,0-2.38,2.61,14.82,14.82,0,0,0-1.5,3.42l-.38,1.28-1.12-.6a11.16,11.16,0,0,0-5.4-1.56,4.61,4.61,0,0,0-2.48.78,6.51,6.51,0,0,0-1.85,2,17.23,17.23,0,0,0-1.92,5.66A39.55,39.55,0,0,0,1010.56,273.47Z"/><path class="cls-3" d="M1077.28,255.9a10.27,10.27,0,0,1,.61-6.29,7.87,7.87,0,0,1,2-2.65,10.75,10.75,0,0,1,1.42-.92,9.14,9.14,0,0,1,1.56-.64,13.53,13.53,0,0,1,3.27-.58,9.27,9.27,0,0,1,3.41.45,8.67,8.67,0,0,1,3,1.78,9,9,0,0,1,1.18,1.29,8,8,0,0,1,1,1.55l-1.92-.1a12.52,12.52,0,0,1,3.57-4.06,7.66,7.66,0,0,1,2.58-1.21,6,6,0,0,1,1.43-.21h1.33a9.61,9.61,0,0,1,5.25,1.6,7.1,7.1,0,0,1,2.91,4.86l-1.82-.46a9.21,9.21,0,0,1,2.17-2.07,9.47,9.47,0,0,1,2.64-1.27,9.18,9.18,0,0,1,2.89-.4,9.72,9.72,0,0,1,2.82.54,8.21,8.21,0,0,1,4.32,3.53,8.53,8.53,0,0,1,1,2.58,10.58,10.58,0,0,1,.15,2.69,9.36,9.36,0,0,0-1.77-4.84,7.52,7.52,0,0,0-4.07-2.7,8.1,8.1,0,0,0-4.78.22,7.84,7.84,0,0,0-2.07,1.17,7.68,7.68,0,0,0-1.62,1.66l-1.4,2-.42-2.47a5.23,5.23,0,0,0-.75-1.84,5.56,5.56,0,0,0-1.42-1.44,7.52,7.52,0,0,0-4.08-1.16l-1.14,0a3.83,3.83,0,0,0-.52.05,2.81,2.81,0,0,0-.49.09,5.6,5.6,0,0,0-1.86.86,10.6,10.6,0,0,0-2.95,3.26l-1.09,1.8-.83-1.9a7.37,7.37,0,0,0-1.54-2.18,6.79,6.79,0,0,0-2.29-1.48,7.72,7.72,0,0,0-2.73-.54c-.48,0-1,.06-1.46.08a9.83,9.83,0,0,0-1.44.24l-.36.06-.34.12-.68.24a9.13,9.13,0,0,0-1.27.68,7.23,7.23,0,0,0-2,2.1A11,11,0,0,0,1077.28,255.9Z"/><rect class="cls-3" x="1029.05" y="440.45" width="4.51" height="18.14" rx="2.21" ry="2.21"/><rect class="cls-3" x="1094.93" y="435.36" width="4.71" height="19.73" rx="2.36" ry="2.36"/><rect class="cls-3" x="1094.93" y="488.34" width="4.71" height="19.73" rx="2.36" ry="2.36"/><rect class="cls-3" x="1029.04" y="490.23" width="4.54" height="18.25" rx="2.22" ry="2.22"/><rect class="cls-3" x="1094.93" y="540.84" width="4.71" height="18.13" rx="2.26" ry="2.26"/><rect class="cls-3" x="1029.04" y="542.67" width="4.54" height="17.7" rx="2.19" ry="2.19"/><path class="cls-3" d="M1047.36,325c-2.84,1.12-5.72,2.08-8.61,3s-5.81,1.73-8.74,2.53-5.87,1.52-8.83,2.18-5.93,1.27-8.95,1.71c2.84-1.12,5.72-2.08,8.61-3s5.81-1.73,8.74-2.53,5.87-1.52,8.83-2.17S1044.34,325.44,1047.36,325Z"/><path class="cls-3" d="M1078.41,323.93c3.69-.18,7.37-.19,11-.14s7.36.17,11,.33,7.35.39,11,.69,7.33.65,11,1.17c-3.69.18-7.37.19-11,.15s-7.36-.18-11-.33-7.35-.4-11-.7S1082.06,324.45,1078.41,323.93Z"/><polygon class="cls-3" points="1001.28 231.56 1002.48 240.34 998.1 232.64 1001.28 231.56"/><polygon class="cls-3" points="1006.39 229.58 1007.59 238.36 1003.21 230.66 1006.39 229.58"/><polygon class="cls-3" points="1011.03 227.44 1012.23 236.22 1007.85 228.52 1011.03 227.44"/><polygon class="cls-3" points="1015.61 225.81 1016.81 234.59 1012.43 226.9 1015.61 225.81"/><polygon class="cls-3" points="1019.68 223.93 1020.88 232.71 1016.49 225.01 1019.68 223.93"/><polygon class="cls-3" points="1023.74 222.81 1024.94 231.59 1020.56 223.89 1023.74 222.81"/><polygon class="cls-3" points="1027.67 220.99 1028.87 229.77 1024.48 222.07 1027.67 220.99"/><polygon class="cls-3" points="1032.41 219.18 1033.28 227.98 1029.18 220.15 1032.41 219.18"/><polygon class="cls-3" points="1036.54 217.59 1037.38 226.38 1033.32 218.54 1036.54 217.59"/><polygon class="cls-3" points="1040.47 215.69 1041.3 224.47 1037.24 216.64 1040.47 215.69"/><polygon class="cls-3" points="1044.62 214.02 1045.22 222.77 1041.37 214.89 1044.62 214.02"/><polygon class="cls-3" points="1049.08 212.41 1049.38 221.1 1045.8 213.17 1049.08 212.41"/><polygon class="cls-3" points="1054.04 211.13 1053.9 219.74 1050.73 211.74 1054.04 211.13"/><polygon class="cls-3" points="1126.72 220.53 1123.31 228.1 1123.34 219.8 1126.72 220.53"/><polygon class="cls-3" points="1132.21 221.9 1128.8 229.46 1128.83 221.16 1132.21 221.9"/><polygon class="cls-3" points="1137.26 222.85 1133.85 230.41 1133.87 222.11 1137.26 222.85"/><polygon class="cls-3" points="1142.03 223.95 1138.62 231.52 1138.64 223.22 1142.03 223.95"/><polygon class="cls-3" points="1121.01 219.74 1117.6 227.31 1117.63 219.01 1121.01 219.74"/><polygon class="cls-3" points="1115.75 218.69 1112.34 226.26 1112.37 217.96 1115.75 218.69"/><polygon class="cls-3" points="1110.66 218.15 1107.26 225.25 1107.29 217.38 1110.66 218.15"/><polygon class="cls-3" points="1106.05 217.22 1102.65 224.32 1102.68 216.45 1106.05 217.22"/><polygon class="cls-3" points="1101.6 217.04 1098.2 224.13 1098.23 216.27 1101.6 217.04"/><polygon class="cls-3" points="1097.15 216.14 1093.75 223.23 1093.78 215.37 1097.15 216.14"/><polygon class="cls-3" points="1091.88 215.31 1088.8 222.48 1088.48 214.68 1091.88 215.31"/><polygon class="cls-3" points="1087.27 214.66 1084.22 221.83 1083.86 214.05 1087.27 214.66"/><polygon class="cls-3" points="1082.8 213.68 1079.75 220.85 1079.39 213.07 1082.8 213.68"/><polygon class="cls-3" points="1078.15 212.9 1075.33 220.06 1074.73 212.38 1078.15 212.9"/><polygon class="cls-3" points="1073.21 212.19 1070.67 219.36 1069.77 211.81 1073.21 212.19"/><polygon class="cls-3" points="1067.81 211.88 1065.7 219.05 1064.35 211.69 1067.81 211.88"/><path class="cls-3" d="M1083.08,199.46l-4.23-70.7-2.15-35.35-1.16-17.67-.65-8.82-.38-4.4-.22-2.2a20.06,20.06,0,0,0-.3-2l1.06-.17-2.34,76.73c-.39,12.79-.77,25.57-1,38.37s-1,25.59-2.49,38.3c1.33-12.73,1.75-25.53,1.93-38.31s.41-25.59.69-38.39l1-38.37L1074,58.06l.11-3.48,1,3.31a8.3,8.3,0,0,1,.23,1.2l.13,1.11.22,2.22.36,4.42.63,8.83,1.11,17.68q1.07,17.67,2,35.36l1.79,35.37Z"/><path class="cls-3" d="M1081.77,98.16l8.46,56q2.07,14,4.43,28c.77,4.66,1.59,9.3,2.5,13.93.44,2.31.9,4.63,1.45,6.92a44.29,44.29,0,0,0,2,6.78,38.72,38.72,0,0,1-2.28-6.71c-.63-2.27-1.17-4.57-1.7-6.88-1-4.61-1.93-9.24-2.81-13.88-1.74-9.29-3.22-18.62-4.69-27.94s-2.75-18.69-4-28.05l-1.78-14C1082.83,107.54,1082.25,102.86,1081.77,98.16Z"/><path class="cls-3" d="M1075.6,61c1.36,6.78,2.91,13.51,4.54,20.23s3.3,13.41,5.11,20.08q5.4,20,12,39.64c4.34,13.1,9.1,26.08,14.44,38.81,2.68,6.36,5.54,12.65,8.76,18.75,1.6,3.06,3.3,6.06,5.19,9a41.83,41.83,0,0,0,6.54,8,42.27,42.27,0,0,1-6.77-7.84c-2-2.84-3.75-5.82-5.44-8.84-3.34-6.07-6.28-12.34-9.07-18.67-5.52-12.69-10.28-25.7-14.71-38.8s-8.39-26.37-11.82-39.77q-2.57-10.05-4.82-20.18C1078.16,74.56,1076.79,67.78,1075.6,61Z"/><path class="cls-3" d="M1061.48,191.41c3.14,4.21,6,8.58,8.88,13h-.93q2.47-4,5.08-7.85,1.31-1.94,2.64-3.86c.91-1.27,1.8-2.55,2.75-3.79-.72,1.39-1.5,2.74-2.25,4.1s-1.57,2.7-2.36,4c-1.61,2.68-3.24,5.33-4.93,8l-.47.74-.46-.74C1066.65,200.55,1064,196.05,1061.48,191.41Z"/><polygon class="cls-3" points="1066.18 142.08 1072.29 153.8 1071.35 153.69 1080.1 143.86 1072.22 154.4 1071.64 155.16 1071.28 154.28 1066.18 142.08"/><path class="cls-3" d="M1068.1,119.19c.47.66.88,1.35,1.32,2s.83,1.38,1.23,2.08c.8,1.39,1.54,2.81,2.27,4.24l-.92-.1c1-1.28,2.13-2.54,3.26-3.76.56-.62,1.13-1.22,1.71-1.81s1.17-1.19,1.8-1.74c-.43.72-.91,1.39-1.37,2.09s-1,1.36-1.46,2c-1,1.34-2,2.63-3.08,3.91l-.55.67-.38-.77c-.71-1.44-1.41-2.89-2-4.36-.33-.73-.64-1.48-.94-2.22S1068.35,120,1068.1,119.19Z"/><path class="cls-3" d="M1069.88,96.85a11.84,11.84,0,0,1,3.21,6.45,10.56,10.56,0,0,1-2.11-3A11,11,0,0,1,1069.88,96.85Z"/><path class="cls-3" d="M1073.46,89.94a7.71,7.71,0,0,1,1.13-2.87,7.54,7.54,0,0,1,2.07-2.27,7.53,7.53,0,0,1-1.12,2.87A7.71,7.71,0,0,1,1073.46,89.94Z"/><path class="cls-3" d="M1081,159.46c1,1,2,2,3,3s2,2,3,3l2.94,3c1,1,2,2,2.94,3.05l-.79.13,4.12-9.33c.68-1.56,1.4-3.09,2.11-4.64l2.12-4.63.34-.74.5.64c2.6,3.36,5.13,6.78,7.68,10.17s5.06,6.83,7.55,10.27c-2.72-3.27-5.42-6.55-8.07-9.87s-5.33-6.61-7.94-10l.84-.1-2,4.66c-.7,1.55-1.36,3.11-2.08,4.66l-4.25,9.26-.3.66-.48-.53c-1-1-1.88-2.11-2.82-3.16l-2.81-3.17c-1-1-1.86-2.13-2.78-3.19S1081.86,160.55,1081,159.46Z"/><path class="cls-3" d="M1082.34,185.35l4,3.45c1.31,1.15,2.63,2.3,3.92,3.47l3.89,3.51c1.3,1.17,2.61,2.32,3.88,3.51l-.75.13,5.92-11.6,6-11.54.3-.58.46.46c2.56,2.48,5.06,5,7.59,7.54s5,5.07,7.48,7.64q-4-3.56-7.92-7.19c-2.61-2.43-5.24-4.84-7.82-7.3l.77-.12-5.92,11.6-6.06,11.54-.29.56-.46-.43c-1.28-1.19-2.52-2.42-3.78-3.63l-3.76-3.64c-1.27-1.21-2.5-2.45-3.74-3.68Z"/><path class="cls-3" d="M1079.9,142a32.33,32.33,0,0,1,5,4,31.73,31.73,0,0,1,4.23,4.79,32.25,32.25,0,0,1-5-4A32.87,32.87,0,0,1,1079.9,142Z"/><path class="cls-3" d="M1090.93,122.89a93.7,93.7,0,0,1-4.18,8.54l-.41.74-.51-.7c-1.28-1.74-2.5-3.52-3.7-5.32-.58-.91-1.17-1.82-1.73-2.74s-1.12-1.86-1.63-2.82c.74.8,1.43,1.64,2.13,2.47s1.35,1.68,2,2.54c1.31,1.72,2.59,3.46,3.81,5.24l-.92,0A92.67,92.67,0,0,1,1090.93,122.89Z"/><path class="cls-3" d="M1078,106.38a12.86,12.86,0,0,1,3.21,2.41,12.61,12.61,0,0,1,2.42,3.19,14.3,14.3,0,0,1-5.63-5.6Z"/><path class="cls-3" d="M1109.63,211.43c.57-1.47,1.2-2.91,1.81-4.37s1.26-2.89,1.89-4.34c1.26-2.89,2.57-5.75,3.91-8.61l.31-.65.54.48c3.57,3.1,7.07,6.26,10.57,9.43s6.94,6.41,10.3,9.73c-3.71-2.93-7.32-6-10.93-9s-7.15-6.17-10.66-9.32l.86-.18c-1.37,2.84-2.76,5.67-4.2,8.48-.72,1.4-1.42,2.81-2.16,4.2S1110.4,210.06,1109.63,211.43Z"/><path class="cls-3" d="M1094.61,134.69a79.45,79.45,0,0,1,6.41,7.45,76.32,76.32,0,0,1,5.51,8.13,75.62,75.62,0,0,1-6.41-7.45A74.35,74.35,0,0,1,1094.61,134.69Z"/><path class="cls-3" d="M1050.56,200.53q3.27-18,6.15-36.08c2-12,3.84-24.1,5.6-36.17s3.39-24.16,5-36.26,2.85-24.23,4-36.36l1.08.13c-2.11,13.71-4.5,27.36-7,41s-5.15,27.25-8.06,40.81-6,27.06-9.63,40.46c-1.8,6.69-3.73,13.36-5.89,19.95a171.7,171.7,0,0,1-7.48,19.39,170.94,170.94,0,0,0,7.19-19.48c2.08-6.61,3.89-13.3,5.62-20,3.48-13.41,6.49-26.94,9.3-40.5,5.65-27.13,10.51-54.43,14.87-81.79l1.08.14q-1.8,18.23-4.12,36.39c-1.56,12.1-3.24,24.19-5.13,36.25s-3.81,24.11-5.9,36.13S1052.9,188.56,1050.56,200.53Z"/><path class="cls-3" d="M1060.93,107.32c-1.45,5-3,10.05-4.51,15.07l-4.73,15c-3.2,10-6.55,19.93-9.94,29.86s-7,19.78-10.86,29.54c-1.94,4.88-3.93,9.74-6.08,14.53-1.1,2.39-2.22,4.76-3.46,7.08-.62,1.16-1.27,2.3-2,3.41a10.39,10.39,0,0,1-2.56,3,10.27,10.27,0,0,0,2.42-3.05c.67-1.13,1.28-2.28,1.86-3.46,1.15-2.34,2.2-4.75,3.21-7.16,2-4.82,3.94-9.71,5.78-14.62q5.51-14.72,10.61-29.6c3.48-9.89,6.81-19.83,10.18-29.76Z"/><path class="cls-3" d="M1002.48,231q2.85-4.26,5.49-8.66t5.21-8.82c3.38-5.93,6.66-11.92,9.75-18s6.13-12.21,9-18.42,5.61-12.46,8.37-18.72c-1.18,3.21-2.37,6.42-3.62,9.61s-2.56,6.34-4,9.47q-1,2.36-2.08,4.7l-2.18,4.64c-1.44,3.11-3,6.16-4.51,9.23-3.19,6.06-6.46,12.08-10,17.94A191.18,191.18,0,0,1,1002.48,231Z"/><path class="cls-3" d="M1061.37,189.93c-.87,1.43-1.78,2.83-2.69,4.24s-1.86,2.78-2.8,4.16c-1.9,2.75-3.83,5.48-5.82,8.17l-.53.73-.39-.8c-2.14-4.32-4.2-8.67-6.05-13.14,2.51,4.13,4.8,8.37,7,12.65l-.93-.07c1.93-2.73,3.92-5.42,5.93-8.09,1-1.33,2-2.66,3.08-4S1060.28,191.2,1061.37,189.93Z"/><path class="cls-3" d="M1049.81,169.74c.76,2.21,1.46,4.44,2.19,6.66s1.4,4.46,2.1,6.69l-.69-.09q2.58-4.45,5.26-8.86l2.66-4.41c.9-1.46,1.76-2.95,2.68-4.4l.49-.79.46.8,3.39,6c1.12,2,2.26,4,3.37,6l-.78,0,5-7.49c1.7-2.47,3.39-5,5.14-7.42-1.52,2.6-3.1,5.17-4.65,7.74l-4.76,7.67-.39.63-.39-.65c-1.17-2-2.31-4-3.47-6l-3.46-6,1,0c-.88,1.47-1.8,2.92-2.7,4.38l-2.71,4.38q-2.7,4.4-5.48,8.73l-.47.73-.22-.83c-.61-2.25-1.25-4.5-1.82-6.76S1050.36,172,1049.81,169.74Z"/><path class="cls-3" d="M1066.18,144.51a38.21,38.21,0,0,1-7.58,10.65,33.94,33.94,0,0,1,3.33-5.65A34.71,34.71,0,0,1,1066.18,144.51Z"/><path class="cls-3" d="M1067.75,123.48a25.94,25.94,0,0,1-5.67,9.12,22.08,22.08,0,0,1,2.36-4.86A23.56,23.56,0,0,1,1067.75,123.48Z"/><path class="cls-3" d="M1058.2,157.06a25.62,25.62,0,0,1-3.37-10.12,25.48,25.48,0,0,1,3.37,10.12Z"/><path class="cls-3" d="M1064.91,109.18a20,20,0,0,1,1.85-4.64,19.77,19.77,0,0,1,2.84-4.12,19.39,19.39,0,0,1-1.85,4.64A19.77,19.77,0,0,1,1064.91,109.18Z"/><path class="cls-3" d="M1023.15,214.35c3.14-4.29,6.54-8.37,10-12.39s7-8,10.84-11.67c-3.14,4.3-6.54,8.38-10,12.4S1027,210.63,1023.15,214.35Z"/><path class="cls-3" d="M1035.29,183.78a120,120,0,0,1,14.82-17.73,103.24,103.24,0,0,1-7,9.22A103.29,103.29,0,0,1,1035.29,183.78Z"/><path class="cls-3" d="M1045.51,154.54a44.44,44.44,0,0,1,4.61-5.85,43.68,43.68,0,0,1,5.44-5.08,49.55,49.55,0,0,1-10,10.93Z"/><path class="cls-3" d="M1054.47,127.5a20.62,20.62,0,0,1,6-7.48,20.62,20.62,0,0,1-6,7.48Z"/><path class="cls-3" d="M1022.52,214.46c-.52-2.06-1-4.13-1.48-6.21s-.93-4.15-1.35-6.23l.83.26c-1.61,1.66-3.25,3.3-4.89,4.94s-3.29,3.26-5,4.86-3.37,3.19-5.06,4.77-3.42,3.13-5.17,4.66c1.54-1.74,3.1-3.46,4.7-5.14s3.18-3.37,4.81-5,3.26-3.3,4.9-4.93,3.3-3.25,5-4.85l.67-.64.16.9c.36,2.09.66,4.2,1,6.3S1022.27,212.34,1022.52,214.46Z"/><path class="cls-3" d="M1033.18,175.34a104.1,104.1,0,0,1-7,9,99.21,99.21,0,0,1-7.85,8.31,117.25,117.25,0,0,1,14.85-17.34Z"/><path class="cls-3" d="M1040.28,158.34c4.88-14.1,9.39-28.31,13.65-42.6s8.19-28.66,12.17-43c1-3.6,2-7.19,3.09-10.78a45.38,45.38,0,0,1,1.91-5.44,4.14,4.14,0,0,1,.51-.83,1.93,1.93,0,0,1,.35-.32,1.3,1.3,0,0,1,.44-.2,1.45,1.45,0,0,1,.32,0h.16a1.66,1.66,0,0,1,.83.34,4.74,4.74,0,0,1,1.19,1.39,23.16,23.16,0,0,1,1.35,2.61,203.41,203.41,0,0,1,7.35,21.27c2.15,7.15,4.11,14.35,6.07,21.55,1,3.6,1.9,7.22,2.83,10.84s1.84,7.23,2.73,10.85c-4.63-14.19-8.85-28.5-13.48-42.66-1.14-3.55-2.31-7.08-3.54-10.59s-2.47-7-4-10.34A22.5,22.5,0,0,0,1073,58a3.11,3.11,0,0,0-.59-.75.47.47,0,0,0,.2.06h.07a.72.72,0,0,0,.23,0,.82.82,0,0,0,.29-.12c.09-.06.1-.09.1-.09a2.9,2.9,0,0,0-.21.38,49.18,49.18,0,0,0-1.79,5.11c-1.09,3.54-2.1,7.13-3.12,10.72-4,14.36-8.18,28.71-12.79,42.91S1045.88,144.51,1040.28,158.34Z"/><polygon class="cls-3" points="998.49 243.39 1050.29 225.65 999.25 245.5 998.49 243.39"/><polygon class="cls-3" points="1142.64 235.9 1069.62 225.25 1142.93 233.67 1142.64 235.9"/><path class="cls-3" d="M1057.85,427.28q.15,15.51.3,31l.21,20.69.3,20.7c.21,13.8.39,48.42.68,62.22.23-13.8.35-48.42.5-62.22l.21-20.7.11-20.7q.08-15.58.17-31.17Z"/><path class="cls-3" d="M1066,132.74c-1.18,12.88-2.39,25.76-3.71,38.62-.67,6.42-1.36,12.85-2.12,19.26-.39,3.2-.78,6.41-1.21,9.59-.22,1.6-.44,3.19-.71,4.76-.13.78-.27,1.57-.43,2.33a12,12,0,0,1-.53,2l-.14.32v.31l0,82.79.36,82.79q0,16.77.2,33.53l2.73-.65q.06-16.44,0-32.88v-82.8l-.4-82.55a15.21,15.21,0,0,0,.6-2.28c.17-.82.31-1.63.44-2.44.26-1.62.49-3.23.7-4.85.43-3.22.79-6.44,1.12-9.66.67-6.45,1.26-12.89,1.83-19.34,1.13-12.89,2.15-25.79,3.14-38.69s1.86-25.8,2.71-38.71,1.68-25.82,2.4-38.73Z"/><path class="cls-3" d="M1141.78,423.81v.33l1.1.16v-.5q0-7.53,0-15.07l-1.17.21Z"/><polygon class="cls-3" points="998.84 451.46 1000.12 582.86 999.93 451.47 1000.07 431.02 998.88 431.17 998.84 451.46"/><path class="cls-3" d="M1142,577.44l.87-148a9.1,9.1,0,0,1-1.05.1Z"/><path class="cls-3" d="M1072.51,55c-.1,0,0,0,0,0l.09,0s.09-.08.09-.07A.33.33,0,0,1,1072.51,55Z"/><path class="cls-3" d="M1145.19,223.18a18.69,18.69,0,0,0-1.71-4.06c-.68-1.26-1.41-2.47-2.15-3.66-1.49-2.38-3-4.71-4.56-7s-3.06-4.6-4.38-7-2.58-4.89-3.79-7.39c-4.84-10-9.17-20.26-13.42-30.55q-12.63-30.92-23.72-62.45c-1.81-5.27-3.59-10.51-5.06-15.86s-3-10.74-4.72-16.08c-.85-2.67-1.75-5.33-2.81-8a38.89,38.89,0,0,0-1.79-3.9,11.73,11.73,0,0,0-2.77-3.69,4.19,4.19,0,0,0-.58-.39l-.34-.16a2.44,2.44,0,0,0-.46-.15,1.89,1.89,0,0,0-1.22.19,2.87,2.87,0,0,0-.69.51,8.26,8.26,0,0,0-1.37,2,37.84,37.84,0,0,0-1.71,4c-1,2.64-1.85,5.3-2.7,8-3.33,10.66-6.39,21.37-9.76,32s-7.13,21.07-11.24,31.4a560.53,560.53,0,0,1-28.46,60.33c-5.3,9.79-10.89,19.41-16.5,29.05-1.39,2.42-2.79,4.83-4.13,7.3-.66,1.24-1.32,2.48-1.91,3.81a10.69,10.69,0,0,0-.75,2.18,3,3,0,0,0-.06.78,1.62,1.62,0,0,0,.14.57,1.78,1.78,0,0,0,.35.5c.2.24.42.44.61.71a30.19,30.19,0,0,1,3.82,7.09,25.36,25.36,0,0,1,2,7.73l-.18,66.85-.23,104.44,1.24-.25.71-104.19.39-66.89a18.66,18.66,0,0,0-.72-4.35,37.92,37.92,0,0,0-1.36-4.06,31.74,31.74,0,0,0-4.09-7.59,8.16,8.16,0,0,0-.68-.79v.08l0-.07c0-.05-.17-.24,0-.08l.07.07a.67.67,0,0,1,0-.18,9.33,9.33,0,0,1,.62-1.76c.55-1.22,1.19-2.44,1.85-3.66,1.32-2.43,2.72-4.83,4.11-7.24,5.62-9.62,11.25-19.26,16.58-29.07a564.74,564.74,0,0,0,28.65-60.51q6.21-15.55,11.35-31.53c3.39-10.63,6.48-21.36,9.8-32,.83-2.64,1.69-5.29,2.65-7.86a34.49,34.49,0,0,1,1.59-3.71,6.61,6.61,0,0,1,1-1.45s0,0,.05,0l-.09,0s-.13-.05,0,0a.33.33,0,0,0,.21,0s0,0-.09.07l0,0,.29.19a10,10,0,0,1,2.17,3c.63,1.18,1.18,2.43,1.7,3.69,1,2.54,1.91,5.16,2.76,7.8,1.68,5.28,3.18,10.64,4.72,16s3.31,10.71,5.13,16q11.1,31.59,23.86,62.53c4.26,10.3,8.62,20.58,13.51,30.64q1.83,3.78,3.85,7.48c1.35,2.47,2.93,4.86,4.47,7.15s3.07,4.64,4.54,7c.73,1.17,1.45,2.35,2.09,3.54a16.61,16.61,0,0,1,1.54,3.62,7.15,7.15,0,0,1,0,3.67c-.31,1.29-.74,2.64-1.1,4a15.53,15.53,0,0,0-.26,2.26c-.05.71-.08,1.41-.11,2.11l-.14,4.19c-.14,5.58-.22,11.16-.27,16.73-.09,11.15-.11,22.3-.12,33.45q0,50.32.33,100.64l1.26-.27q0-50.19.14-100.37c.06-11.14.13-22.29.27-33.43.08-5.56.15-11.14.3-16.69l.15-4.17c0-.69.06-1.38.11-2.06a15.26,15.26,0,0,1,.2-1.89c.35-1.33.78-2.63,1.12-4.06A9.25,9.25,0,0,0,1145.19,223.18Z"/><path class="cls-3" d="M994.36,234.06l0,.07v-.08l-.07-.07C994.19,233.82,994.35,234,994.36,234.06Z"/><path class="cls-1" d="M1354.25,379.79l-2.58-1-74.78,11-121.58,17.33-46.25,6.75-43.25,5.83.41,1.75,76.06,1.84,45.61,5.58s16,4.52,20.29,6.72,15.46,11.2,13.79,16.36-1.16,8.5-12.83,13-66.63,9.75-66.63,9.75l.13-4.5s63.38-6.58,67.5-12.83,6-11.58-7.42-17.42c-9-3.89-35.42-9.34-79.75-11.66-19.06-1-41.29-1-67.08-.75-85.75.84-115.5,20.33-113.5,26.83,1.64,5.32,27.33,13.92,56.5,15.58l.33,5s-15.58.63-28.5-1.29-34.58-8.92-37.83-19.92,16.39-21,44.25-27.48c26.75-6.18,21-4.27,37.67-7.43s53.66-12.42,53.66-12.42l71.25-15.25L1250.07,367l103.26-22.65"/><path class="cls-4" d="M1295.75,376.64a5.88,5.88,0,0,0,1.12.25,32,32,0,0,0,4.6-.1c4.38-.62,8.82-.73,13.18-1.63,4.75-1,9.56-1.61,14.34-2.41.51-.08,1-.2,1.5-.32l10.15-2.48a.78.78,0,0,1,.5,0c.21.1.48.25.53.44a.76.76,0,0,1-.23.65,1.63,1.63,0,0,1-.91.35c-3.7.07-7.14,1.52-10.75,2.05-1,.14-2,.38-3,.59-1.58.32-3.15.71-4.74,1-1.84.32-3.71.51-5.56.8-2.52.38-5,.86-7.56,1.2-2.78.37-5.59.54-8.38.9a53.86,53.86,0,0,1-7.41,0,1,1,0,0,1-1.12-.83,1.09,1.09,0,0,1,.7-1.24,45.24,45.24,0,0,1,5.79-1.94c3.07-.67,6.2-1,9.29-1.59,1.07-.19,2.09-.67,3.17-.89,4.08-.84,8.22-1.49,12.26-2.5,3-.77,6.15-1.26,9.17-2.17a47.4,47.4,0,0,1,10-2,8.21,8.21,0,0,0,1.47-.39c.29.8-.38,1-.74,1.05a20.79,20.79,0,0,1-4.71,1.11c-2.18.11-4.12,1-6.21,1.38-1.67.29-3.28.91-5,1.25-3.42.69-6.86,1.27-10.29,1.92-1.42.27-2.83.6-4.24.91l-11.48,2.5c-1.5.33-3,.64-4.49,1C1296.27,375.63,1295.77,375.82,1295.75,376.64Z"/><path class="cls-4" d="M1241.63,372.64a20.13,20.13,0,0,1-5.75,1.27C1237.64,373.52,1239.28,372.54,1241.63,372.64Z"/><path class="cls-4" d="M1226,376.12a4.22,4.22,0,0,1,2.51-.78,5.66,5.66,0,0,0,1.44-.25h0c0,.07-.07.19-.13.21a12.41,12.41,0,0,1-3.86.79Z"/><path class="cls-4" d="M1232.61,374.62c-.76.84-1.72.57-2.66.47h0l2.7-.43Z"/><path class="cls-4" d="M1125.74,406.85a5.21,5.21,0,0,1,1.09-.53c3.28-.52,6.55-1.05,9.84-1.5,3.87-.52,7.76-.94,11.64-1.43a17.46,17.46,0,0,0,1.74-.39,5.42,5.42,0,0,1,2.66.23c0,.63-.42.59-.71.67a13.14,13.14,0,0,1-2.73.57c-3.83.12-7.55,1.11-11.38,1.36-3.46.22-6.89,1-10.34,1.49a6.75,6.75,0,0,1-1.27.05C1126.17,407.37,1126.06,407.17,1125.74,406.85Z"/><path class="cls-4" d="M1218.56,455.77c-.67.61-1.32,1.24-2,1.86s-1.5,1.36-2.31,2a29.45,29.45,0,0,1-7.87,4.37,30,30,0,0,1-4.36,1.21c-.74.15-1.48.26-2.22.36s-1.55.35-2-.15a5.88,5.88,0,0,1,2.86-1c3.7-.51,7-2.17,10.2-3.89,2.72-1.45,4.61-3.6,6.57-5.92a.71.71,0,0,1,.34-.26C1218.42,454.23,1218.37,455.43,1218.56,455.77Z"/><path class="cls-4" d="M944.24,440.76c.09.05.16,0,.22-.09a5.06,5.06,0,0,1,1.7-1.33c2.85-1.62,5.81-3,8.79-4.4a31.18,31.18,0,0,1,5.62-2.16,24.31,24.31,0,0,1,2.55-.46c.39-.05.82-.15,1.22-.16a3.86,3.86,0,0,1,.84.17c-.21.27-.28.46-.39.49-1.63.48-3.27.94-4.9,1.39a50.52,50.52,0,0,0-10.82,4.45,21.33,21.33,0,0,1-2.53,1.15A8.9,8.9,0,0,0,944.24,440.76Z"/><path class="cls-4" d="M1145.14,430.32a4.89,4.89,0,0,0,1.08-.11,8.31,8.31,0,0,1,1.22,0c.82.05,1.63.19,2.45.26,2.88.25,5.76.55,8.64.74a41.9,41.9,0,0,1,7.81,1.21,17.24,17.24,0,0,0,2.78.4c3.05.26,6.11.45,9.17.74a36.67,36.67,0,0,1,4,.68c3.16.67,6.32,1.34,9.46,2.09,1.9.45,3.77,1,5.64,1.59.65.19,1.25.56,1.9.73,3.31.9,5.87,3,8.49,5.06a11.05,11.05,0,0,1,4,7.21,4.72,4.72,0,0,1-.93,3.84,12.46,12.46,0,0,1-4.47,3.66c-3.66,1.81-7.59,2.47-11.51,3.22-5,1-10.09,1.56-15.16,2.19-2.45.3-4.88.81-7.29,1.34a99.68,99.68,0,0,1-10.31,1.81c-4.23.48-8.45,1-12.68,1.55a13.31,13.31,0,0,1-1.78.12,3.8,3.8,0,0,1-.52,0c-1.19.35,1.15-1.13-4.36-.2a2.2,2.2,0,0,0,0,.88c0,.45,0,.9,0,1.35-.11,0,0,.09.08.14a17.69,17.69,0,0,0,2.25-.28l2.87-.27c1.91-.19,3.81-.39,5.72-.62q5.71-.68,11.41-1.57c4.91-.78,9.79-1.72,14.69-2.49,3.71-.57,7.44-1,11.15-1.51,5.74-.81,12.38-1.44,17.48-4.44,2.78-1.64,5.11-4.38,5.4-7.6.34-3.85-2.24-7.37-5.21-9.84-5-4.11-11.22-6.36-17.5-7.83a173.22,173.22,0,0,0-22.56-3.29l-23.24-2.3c-.86,0-1.7-.24-2.57-.18a48.45,48.45,0,0,1-6-.28l-6.51-.39c-14-.79-28-1.4-42-1.58q-5.68-.07-11.37-.06-13,0-26,.5c-8.25.29-16.55,1.16-24.78,1.27-3.18,0-6.27.6-9.4.87-11.93,1-23.69,2.84-35.54,4.62-1.85.28-3.7.56-5.54.91A79.47,79.47,0,0,0,952,443.33c-1.71.94-3.33,2-5,3.12a20.66,20.66,0,0,0-4.65,4.35,5.63,5.63,0,0,0-.79,1.84c-.18.59-.16,1.23-.34,1.81-1.15-.27-1.3-2.07-1.06-3a6.29,6.29,0,0,1,1.55-2.56c.69-.78,1.34-2.25,2.37-2.6-1.11-.18-2.69,2-3.44,2.66a5.43,5.43,0,0,0-1.5,1.88,4.16,4.16,0,0,0-.18,2c.43,3.81,3.3,5.84,6.43,7.55a43.46,43.46,0,0,0,10.86,4c10.29,2.45,21,3.47,31.41,5.12l7.06,1.14a22.52,22.52,0,0,0,4.17.3c1.07-.09,0-1.15,0-2a2.55,2.55,0,0,1-.84.14c-2.71-.24-6.71-.8-9.4-1.21-4-.62-8.06-1.09-12.1-1.75-3.28-.54-6.53-1.81-9.83-2.11s-6-1.37-9.11-2c-4.25-.92-8.21-1.78-11.68-4.33a6.25,6.25,0,0,1-1.21-1.3,3.6,3.6,0,0,1,.14-5.09,24.47,24.47,0,0,1,4-3.5,82.76,82.76,0,0,1,29.14-12,89.46,89.46,0,0,1,13-1.68,58.25,58.25,0,0,0,6.08-1c2.24-.38,4.49-.76,6.74-1.06q8.57-1.11,17.18-1.89c5.72-.51,11.38-1.18,17.11-1.47,2.9-.14,5.84-.52,8.74-.6,2.62-.08,5.16.1,7.78,0s5.35-.18,8-.24c3.8-.09,7.59-.6,11.38-.45l1.42.09a20.21,20.21,0,0,0,2.69.09c1.46-.08,2.93-.14,4.4-.18,3.67-.1,7.27.29,10.93.27,2,0,4.09.15,6.13.22,1.49.06,3.15-.41,4.64-.34l5,.23c3.25,0,6.51.54,9.76.46s6.26.73,9.49.83c3.86.11,7.71.38,11.55.76.64.06,1.31.2,2,.2C1143.12,430.07,1144.13,430.22,1145.14,430.32Z"/><path class="cls-4" d="M1089.63,414.36c-.9.24-1.82.41-2.73.59-.25.05-.52,0-.76.07-3.31.92-6.76.78-10.11,1.39-2.41.45-4.79,1-7.18,1.6-3.57.82-7.16,1.55-10.77,2.16-1.42.24-2.83.06-4.24.37l-.07-.59a5.45,5.45,0,0,1,1.13-.51c2.59-.49,5.19-.94,7.78-1.42.67-.12,1.34-.27,2-.42a55,55,0,0,1,7-1.44c4.78-.39,9.37-1.65,14-2.66a35,35,0,0,1,3.53-.54c.47-.06,1.12-.15,1.3.47S1090.08,414.24,1089.63,414.36Zm95.77-16.72a5.13,5.13,0,0,1,1.08-.42c2.69-.37,5.26-1.4,8-1.4a9.92,9.92,0,0,0,1.5-.29c2.41-.4,4.73-1.14,7.22-1.33s5-1.14,7.43-1.75c1.48-.37,2.86-1.13,4.44-1.09a1.37,1.37,0,0,1,1.48,1.37,1,1,0,0,1-.63,1,5.48,5.48,0,0,1-1,.23l-6.56,1c-.59.09-1.17.2-1.75.32a17.67,17.67,0,0,1-4.29.51,5.31,5.31,0,0,0-3,.46c-.39.23-1,.07-1.5.15-1.42.22-2.83.47-4.25.71l1.85.22c0,.12,0,.24,0,.35a13.11,13.11,0,0,1-1.59.47c-1.54.27-3.1.48-4.64.71a1.62,1.62,0,0,1,1.16-.79c1.11-.28,2.19-.66,3.28-1-2.23-.16-4.36.47-6.52.83A3,3,0,0,1,1185.4,397.64Zm31.38-.34a10.78,10.78,0,0,1-1.49.36c-3,.46-6,.95-9.09,1.31a65,65,0,0,1-8.37.71,33.39,33.39,0,0,0-7.84.84,3.3,3.3,0,0,1-.89-.1,3.58,3.58,0,0,1,2.19-.73c1.09-.11,2.18-.32,3.26-.53,3.25-.65,6.49-1.33,9.74-2,2.58-.51,5.17-1,7.77-1.49,1.42-.25,2.85-.43,4.29-.6.65-.08,1.07.35,1.17,1.06A.94.94,0,0,1,1216.78,397.3Zm136.44-30.92-4.7,9.14-.87-.72c-2.08.45-4.11,1.11-6.18,1.59-3.4.8-6.81,1.54-10.22,2.27-1,.21-2,.29-3,.43l-6.33.87a3.43,3.43,0,0,0-2.54,1c-.25.31-.92.35-1.41.38-3.84.23-7.57,1.14-11.4,1.49-2.78.26-5.53,1-8.3,1.49-4.27.77-8.55,1.51-12.93,2.29-.7-.92-2-1.27-2.17-2.61.57-.87,1.47-.93,2.25-1.22,1-.37,2.08-.76,3.08-1.22a.89.89,0,0,0-.1-1.59,6.19,6.19,0,0,0-2-.36,18.31,18.31,0,0,0-3,.3,5.24,5.24,0,0,1-2.91-.19,20.46,20.46,0,0,1-.65-10.93c-1.25,1.6-1.22,3.48-1.21,5.31s.17,3.7.28,5.7c-2-1.67-2.32-7.88-1.44-12.19a1.81,1.81,0,0,0-.81,1.5c-.18,1.35-.31,2.7-.49,4.05-.27,1.92.4,3.71.65,5.56.08.58.2,1.15.31,1.78a8.17,8.17,0,0,1-3,.82c-3.2.53-6.41,1-9.6,1.51-1.09.18-2.15.51-3.23.78-2.73.67-5.45,1.38-8.19,2-1.75.38-3.53.63-5.3.86a92.31,92.31,0,0,0-12.35,2.09c-1.79.48-3.68.64-5.44,1.27-.29.1-.45.59-.87,1.18a11.59,11.59,0,0,0,1.53,0,41.76,41.76,0,0,1,6.31-.94,13.87,13.87,0,0,0,2.23-.53c2.43-.49,4.86-.9,7.27-1.43,5.33-1.18,10.64-2.42,16-3.62,1.16-.27,2.33-.54,3.51-.72,3.37-.51,6.74-1,10.12-1.43a5.1,5.1,0,0,1,1.51,0,.79.79,0,0,1,.47.52c0,.19-.13.44-.26.62a.81.81,0,0,1-.44.25c-2.39.58-4.68,1.59-7.18,1.73a21.6,21.6,0,0,0-3.27.6,160.43,160.43,0,0,1-16.84,3,26.23,26.23,0,0,0-5.49,1.12,14,14,0,0,1-2.26.32,2.48,2.48,0,0,0-.64.38,4.91,4.91,0,0,0,2.91.31,21.94,21.94,0,0,1,5-.83c2.26-1.21,4.81-.9,7.22-1.36a11.13,11.13,0,0,0,1.5-.32c4.15-1.36,8.54-1.54,12.78-2.46,1.58-.34,3.16-.7,4.74-1.06l2.94-.64a5.77,5.77,0,0,1,1.47,2.92,4.84,4.84,0,0,1-1.3.66c-3.45.54-6.85,1.33-10.36,1.54-2.28.14-4.54.69-6.83.88-4.42.37-8.81,1-13.18,1.73-3.27.57-6.52,1.28-9.79,1.87-1.84.33-3.7.54-5.55.79-2.87.39-5.73.78-8.6,1.15a19.87,19.87,0,0,1-2.55.18c-.62,0-1.18-.23-1.2-1,.14-.5.61-.5,1-.59,1.41-.32,2.83-.6,4.23-1a3.71,3.71,0,0,0,.94-.61.85.85,0,0,0-1.07-.68c-.59.09-1.15.33-1.73.43a26.09,26.09,0,0,1-3.28.44c-1,0-1.42-.53-1.57-1.64a1.29,1.29,0,0,1,1-1.58,12.25,12.25,0,0,0,4.41-1.92,1.24,1.24,0,0,1,.72-.2c1.9,0,3.56-1.19,5.47-1.15a1.29,1.29,0,0,0,.71-.28,10.42,10.42,0,0,1,3.25-1.44c.2-.06.33-.32.64-.66-2-.16-3.66.63-5.36,1s-3.64.89-5.46,1.35-3.34,1.27-5.3,1.28c-.74-3.35.53-6.29,1.91-9.65-1.78,1.29-2.1,2.85-2.51,4.37s-.82,2.9-1.32,4.7a4.92,4.92,0,0,1-.37-1.3c.07-.92.24-1.83.39-2.9-1,1-1,1.18-1.2,2.93-.09,1-.13,2-.2,3a4.31,4.31,0,0,1-.95.49q-6.47,1.49-12.94,2.93c-1.58.35-3.16.72-4.75,1-3.25.65-6.51,1.31-9.77,1.92-2.76.52-5.57.83-8.3,1.5s-5.47,1.23-8.18,1.91a7.33,7.33,0,0,0-3.86,1.89.85.85,0,0,0-.15.69,1,1,0,0,0,.53.48,2.14,2.14,0,0,0,.76,0l8.16-.55c.76-.05,1.53-.18,2.29-.18a22.84,22.84,0,0,0,5.82-.76,1.55,1.55,0,0,1,1.81.29,8.16,8.16,0,0,1-2.48.67,19.91,19.91,0,0,0-4,.61c-1.43.2-2.86.4-4.28.62-3.37.51-6.74,1.05-10.11,1.53-1.34.19-2.7.27-4,.36a3.6,3.6,0,0,1-2.74-1,5,5,0,0,1-2-3.32c-.1-.67-.26-1.34-.4-2a10.14,10.14,0,0,1,1.21-6.67,3.26,3.26,0,0,1,2.08-1.77c1.31-.38,2.61-.81,3.94-1.1,3.5-.76,7-1.46,10.52-2.15,3.84-.77,7.69-1.47,11.52-2.26,1.92-.39,3.8-1,5.73-1.33,4.09-.78,8.22-1.44,12.31-2.24,3.93-.77,7.84-1.66,11.76-2.48.74-.16,1.49-.3,2.25-.4a42.65,42.65,0,0,0,7.89-1.84c-1.07.12-2.14.24-3.21.38-5.13.66-10.17,1.77-15.23,2.82-3.89.82-7.78,1.65-11.74,2.09a20.07,20.07,0,0,0-2.92.72,2.55,2.55,0,0,1,2-1.4,107,107,0,0,0,11.48-2.45,7.56,7.56,0,0,1,1.26-.23c3.47-.4,6.86-1.22,10.29-1.85,3.19-.58,6.3-1.43,9.45-2.14,1.75-.39,3.46-.92,5.17-1.42a111.38,111.38,0,0,1,13.52-2.66c5.15-.87,10.14-2.34,15.18-3.58a43.68,43.68,0,0,1,4.52-.81,8,8,0,0,0,3.88-1.11,5.7,5.7,0,0,1,2.16-.73c5-1,10-1.9,15-2.92,2.42-.49,4.8-1.16,7.2-1.74a11.83,11.83,0,0,1,1.74-.4,35.28,35.28,0,0,0,6.94-1.6c1.61-.48,3.34-.59,5-.95,3-.66,6-1.41,8.95-2.08,1.32-.29,2.67-.49,4-.68a95.06,95.06,0,0,0,10.67-2.53c.74-.19,1.49-.35,2.25-.5a14.7,14.7,0,0,0,1.76-.3c3.57-1.17,7.34-1.55,10.89-2.68,2.29-.72,1.39-.76,3.69-1.23,0,0,.29-1,3.71-2.58a11.6,11.6,0,0,0-2.86.4c-4.47,1.07-12.36,3.68-17.09,4.86q-16.94,4.22-34,7.74c-5.43,1.12-10.84,2.26-16.26,3.37-2.83.58-5.66,1.19-8.47,1.85-2.43.56-5.55,2-8,2-3,.8-5.89,1.68-8.84,2.46-12.09,3.21-24.51,4.9-36.63,8-12.31,3.12-24.94,4.92-37.42,7.29-6.39,1.6-13,2.48-19.52,3.71l-10,1.9c-1.56.3-3.07.82-4.61,1.24a18.57,18.57,0,0,1-2.35.52c-.78.11-1.56.1-2.34.22a13.67,13.67,0,0,0-2.42.65l-1.3.46c-1.25.45-2.56.69-3.84,1.06q-2.49.72-5,1.3c-2.55.61-5.12,1.14-7.69,1.67l-26.78,5.53-13.6,2.82-6.59,1.36c-1.09.22-2.13.63-3.2.92a13.27,13.27,0,0,1-1.88.36c-.58.08-1.19,0-1.76.15l-.15,0c-.67.19-1.23.64-1.9.83s-1.68.38-2.52.56c-1.63.34-3.28.6-4.92.85-1.1.16-2.22.28-3.29.54-7.27,1.78-14.47,3.84-21.76,5.57-7.08,1.68-14.21,3.12-21.35,4.49s-14.31,2.68-21.45,4.1-14.21,2.94-21.24,4.76a206.34,206.34,0,0,0-19.74,6.08c-6.25,2.3-12.61,5.15-16.89,10.26-2.12,2.52-3.68,5.76-3.24,9,.4,3,2.35,5.45,4.49,7.53,7.85,7.66,18.72,11.54,29.56,13.25s21.88,1.49,32.83,2.13c-.5-1.17-2.08-1.28-3.35-1.23a146.8,146.8,0,0,1-24.17-1.06c-12.12-1.54-24.55-4.87-33.66-13a12.41,12.41,0,0,1-4-5.56c-1.12-3.85,1-7.94,3.84-10.81,4.45-4.56,10.46-7.22,16.43-9.42a206,206,0,0,1,21.22-6.48c7.18-1.81,14.43-3.34,21.7-4.78,5.75-1.13,11.51-2.39,17.28-3.34,3.67-.64,7.25-1.57,10.88-2.36,3.41-.74,6.87-1.15,10.29-1.81,7.38-1.44,14.41-4.08,21.68-5.93a8.1,8.1,0,0,1,1.65-.4c.31-.07.62-.16.93-.22,2.08-.43,4.2-.68,6.29-1,.68-.11,1.36-.2,2-.37,2.63-.65,5.25-1.38,7.9-2,4-.91,8-2,12-2.54,3.23-.44,6.31-1.43,9.52-1.88,1-.15,2-.29,3-.51,1.75-.38,3.48-.83,5.22-1.23,2-.47,4-1,6-1.37,4-.77,8-1.43,12-2.54a46.37,46.37,0,0,1,6.49-1.32,34.57,34.57,0,0,0,5.94-1.37c2.59-.81,5.28-1.3,7.92-2s5.32-1.23,7.92-2a69.46,69.46,0,0,1,12.54-2.34c2.87-.33,5.71-.92,8.56-1.43,5.27-.94,10.43-2.42,15.76-3a7,7,0,0,0,1.47-.41,1.88,1.88,0,0,1,2.09.49c-1.56-.07-3,.61-4.45.88-3.59.67-7.19,1.33-10.77,2-2.59.5-5.16,1.07-7.74,1.62-.49.11-1,.29-1.48.36a112,112,0,0,0-20.21,5.31,46.38,46.38,0,0,1-4.94,1.25c-4.64,1.05-9.29,2.07-13.94,3.12-1.73.39-3.46.84-5.19,1.28-.56.14-1.15.28-1.33,1,3.88-.89,7.75-1.84,11.65-2.66,6.33-1.32,12.68-2.53,18.77-4.8a5.27,5.27,0,0,1,3.61-.49,10.64,10.64,0,0,1-.17,1.46c-.28,1-.7,1.93-.91,2.92a13.88,13.88,0,0,0,.84,7.51c.18.48.4.93.66,1.53a9.77,9.77,0,0,1-1.45.51c-3,.5-6.06,1-9.09,1.42-2.78.39-5.58.67-8.36,1a25.13,25.13,0,0,0-3,.45,68.91,68.91,0,0,1-7.56,1c-2.53.34-5.07.65-7.59,1-4.14.58-8.26,1.22-12.39,1.8-2.7.38-5.42.67-8.12,1.05a29.57,29.57,0,0,0-3.5.66,5.12,5.12,0,0,1-3,.13c-.17-.52.19-.59.5-.68,1.31-.37,2.61-.81,3.94-1.09,3.24-.69,6.45-1.56,9.69-2.21,3.51-.69,7-1.6,10.43-2.41a2.58,2.58,0,0,1,1-.11c.51.09,1.06.31,1.25-.39s-.34-.9-.78-1.17a2.27,2.27,0,0,0-.42-.15,17.14,17.14,0,0,1-5.6,1.88c-1.26.18-2.52.36-3.76.63-4.74,1-9.48,2.06-14.22,3.07-.91.2-1.83.29-2.72.43-.71-1.86-.53-2.7,1.17-6-1.36.68-1.36.68-3.17,5.89a27.1,27.1,0,0,0-4.7.76,67.9,67.9,0,0,1-9,2.09c-3.07.6-6.18,1-9.37,1.5.08-.86.76-.77,1.11-.81A29.91,29.91,0,0,0,1075,413a9.22,9.22,0,0,1,1.73-.39,55.76,55.76,0,0,0,6.39-1.73c.19,0,.31-.33.48-.52-.21-.11-.38-.26-.49-.22-1.87.55-3.73,1.16-5.61,1.69a164.68,164.68,0,0,1-16.28,3.74c-3.41.61-6.89.73-10.31,1.29s-6.91,2-10.35,3q-3.42,1-6.86,2c-1,.31-2.07.62-3.13.87s-1.88.36-2.81.63a2.22,2.22,0,0,0,.73,1,2.27,2.27,0,0,0,1.52.08c.57-.07,1.14,0,1.71-.07,1.25-.12,2.48-.35,3.73-.47q5.2-.48,10.42-.83c7-.47,13.92-.75,20.89-.88,14-.27,27.91.07,41.84.77q11.58.58,23.15,1.44t23.1,2c7.6.75,15.18,1.77,22.78,2.46,5.11.47,10.14.77,15.08,2.28,1.62.49,3.32.7,5,1.15,1.47.41,2.91,1,4.35,1.45l4.1,1.43c.38.14.85.21.91.91-2.24.25-4.13-1.39-6.91-1.3a21.55,21.55,0,0,0,4.7,1.83,17.52,17.52,0,0,1,6.27,2.9,45.64,45.64,0,0,1,5.44,5.33,12.19,12.19,0,0,1,3.47,6.92,4.88,4.88,0,0,1-.52,3.08c-.23.39-.53.73-.76,1.13a9.18,9.18,0,0,0-.52,1.15,13.8,13.8,0,0,1-9.45,7.6c-1.5.3-2.94.86-4.43,1.25a36.15,36.15,0,0,1-5.77,1c-3.56.34-7.1.89-10.64,1.34-1.86.24-3.78.37-5.62.73a49.27,49.27,0,0,1-5.45.51q-5.77.48-11.54,1.06c-3.81.4-7.63.81-11.44,1.27l-5.77.72-2.88.38c-.62.08-2,0-2.46.53l0,.06c-.15.32.16.87.15,1.22.26,0-.14.43.11.47,1.19.25,4.57-.88,6.39-1.17,5.08-.78,11.11-.25,16.35-.79,10.73-1.1,21.45-2.79,32.07-4.66,6.71-1.18,14.64-3.59,19.75-8,3.75-3.24,4.79-5.06,4.81-10,0-5.23-4.81-9.88-8.92-12.43-12.6-7.82-27.49-10.17-42.23-11.78-5.15-.57-10.31-1.05-15.47-1.59-1.88-.2-3.76-.4-5.64-.62a28,28,0,0,0-5.4-.49c-5.27.4-10.54-.41-15.78-1a133.06,133.06,0,0,0-14.66-1c-10.24,0-20.3-1.2-30.56-.89-5.74.18-11.43-.11-17.19-.24h-.31c1.5-1.07,1.5-1.07,4.19-1.23h2.36c.82-.18,1.67-.23,2.67-.35a9.43,9.43,0,0,1,1.66-1.16,7.66,7.66,0,0,1,2-.42c1.78-.24,3.56-.42,5.33-.71,3.62-.59,7.24-1.14,10.83-1.88,5.6-1.16,11.27-1.79,16.92-2.62,1.52-.22,3-.5,4.55-.71,3.8-.52,7.6-1.06,11.41-1.53,4.56-.58,9.13-1.11,13.7-1.63.54-.06,1.07,0,1.61-.08s.83-.09,1.24-.16a7.46,7.46,0,0,0,1.05-.31c.67-.23,1.38.4,2.07.23a35.57,35.57,0,0,1,4.35-.73c1.5-.17,3.16-.79,4.67-.88s2.79-.47,4.27-.58c.82-.05,1.64-.12,2.45-.21,10.37-1.17,20.71-2.56,31-3.94,27.32-3.67,54.54-8.11,81.83-12,17.51-2.52,35-5.27,52.52-7.61a99.52,99.52,0,0,0,12.29-1.12c4.19-.56,10.77-.83,15.07-1.21l-5.56-2.07c-3.79.54-8.76.9-12.56,1.38a4.3,4.3,0,0,1-2.07-.34c1-.22,2-.42,3-.68s2.11-.66,3.19-.93c2.3-.59,4-.85,6.27-1.53"/><path class="cls-5" d="M1351.45,378.85c-10.16,1.74-293,42.08-293,42.08s77.21,2,89.4,2.79,66.37,4.55,74.16,24.13c9.91,24.88-77.72,26.67-77.72,26.67"/><path class="cls-5" d="M999.57,474.86s-33.27,1.19-51.9-7.44S911.59,437.78,996,422.2c7.94-1.46,341.87-73.95,354.82-77.5"/><path class="cls-5" d="M1144.32,468.93s48.18-5.25,58-8.63,16.42-11.69,4.91-18.29-57.91-15.58-136.48-14.9-107,12-111.07,13.7-21,10.51-14.9,16.1,49.71,11.35,54.79,12"/><path class="cls-3" d="M998.86,442.49l0,9,1.28,131.4-.19-131.39.07-9.38Z"/><path class="cls-3" d="M1141.94,440.74l.08,136.7.88-136.67Z"/><path class="cls-3" d="M1044,372.48a40.05,40.05,0,0,1-3.1,15.07,22,22,0,0,1-4.25,6.52,10.5,10.5,0,0,1-7.17,3.33,10.76,10.76,0,0,1-7.34-3.31,21.55,21.55,0,0,1-4.44-6.68,33.05,33.05,0,0,1-2.27-7.62,46.61,46.61,0,0,1-.61-7.91,37.59,37.59,0,0,1,3.51-15.4A21.39,21.39,0,0,1,1023,350a10.77,10.77,0,0,1,7.47-3,10.53,10.53,0,0,1,7,3.62,22,22,0,0,1,4,6.7A39.92,39.92,0,0,1,1044,372.48Zm0,0a45,45,0,0,0-.6-7.69,31.83,31.83,0,0,0-2.19-7.36,20.37,20.37,0,0,0-4.2-6.31,9.53,9.53,0,0,0-6.52-2.95,9.38,9.38,0,0,0-6.34,3,20.81,20.81,0,0,0-4,6.17,41.15,41.15,0,0,0-.61,29.29,20.57,20.57,0,0,0,3.74,6.33,9.32,9.32,0,0,0,6.21,3.27,9.57,9.57,0,0,0,6.63-2.69,20.44,20.44,0,0,0,4.46-6.13,31.55,31.55,0,0,0,2.49-7.27A45.9,45.9,0,0,0,1044,372.48Z"/><path class="cls-3" d="M1037.78,372.35a30,30,0,0,1-1.7,9.66,15.13,15.13,0,0,1-2.36,4.36,7.84,7.84,0,0,1-1.88,1.7,4.63,4.63,0,0,1-5,0,7.85,7.85,0,0,1-2-1.72,15,15,0,0,1-2.47-4.44,25.1,25.1,0,0,1-1.22-4.9,30.76,30.76,0,0,1,.2-10,24.86,24.86,0,0,1,1.42-4.84,14.73,14.73,0,0,1,2.65-4.34,7.86,7.86,0,0,1,2-1.64,5.31,5.31,0,0,1,2.57-.63,5.18,5.18,0,0,1,2.46.85,7.85,7.85,0,0,1,1.82,1.77,15.22,15.22,0,0,1,2.18,4.45A30.22,30.22,0,0,1,1037.78,372.35Zm0,0a34.85,34.85,0,0,0-.3-4.9,24.84,24.84,0,0,0-1.19-4.75,14.35,14.35,0,0,0-2.35-4.23,7.28,7.28,0,0,0-1.77-1.56,3.94,3.94,0,0,0-4.29,0,6.91,6.91,0,0,0-1.69,1.55,14.29,14.29,0,0,0-2.24,4.14,31.36,31.36,0,0,0-.39,18.88,14.7,14.7,0,0,0,2.06,4.23,7,7,0,0,0,1.64,1.61,3.9,3.9,0,0,0,4.28.2,7,7,0,0,0,1.83-1.48,14.43,14.43,0,0,0,2.53-4.13,25.37,25.37,0,0,0,1.38-4.7A36.34,36.34,0,0,0,1037.78,372.35Z"/><path class="cls-3" d="M1080.56,365.27a32.51,32.51,0,0,0,1.13,8.16,26.26,26.26,0,0,0,3.4,7.46,19,19,0,0,0,5.8,5.64,13.83,13.83,0,0,0,7.56,2.12,13.66,13.66,0,0,0,7.3-2.53,18.88,18.88,0,0,0,5.26-5.74,26,26,0,0,0,3-7.26,31.45,31.45,0,0,0,1-7.85,29.31,29.31,0,0,0-4-15.11,19,19,0,0,0-5.27-5.74,13.54,13.54,0,0,0-7.29-2.52,13.82,13.82,0,0,0-7.56,2.11,19,19,0,0,0-5.79,5.63,26.14,26.14,0,0,0-3.41,7.46A32.65,32.65,0,0,0,1080.56,365.27Zm0,0a31.88,31.88,0,0,1,1-8.19,27.09,27.09,0,0,1,3.19-7.64,20.14,20.14,0,0,1,5.65-6.13,14.88,14.88,0,0,1,8-2.73,15.1,15.1,0,0,1,8.28,2.32,20.2,20.2,0,0,1,6.18,6,29.88,29.88,0,0,1,4.75,16.34,33.91,33.91,0,0,1-1.18,8.5,27.79,27.79,0,0,1-3.57,7.84,20.4,20.4,0,0,1-6.18,6,15.1,15.1,0,0,1-8.28,2.32,14.88,14.88,0,0,1-8-2.73,20.39,20.39,0,0,1-5.65-6.13,27.32,27.32,0,0,1-3.19-7.63A31.88,31.88,0,0,1,1080.56,365.27Z"/><path class="cls-3" d="M1088.44,365.27a21.08,21.08,0,0,0,2.44,10,12.5,12.5,0,0,0,3.29,3.89,7.61,7.61,0,0,0,4.63,1.59,7.4,7.4,0,0,0,4.43-1.83,12.41,12.41,0,0,0,3-3.93,23.07,23.07,0,0,0,0-19.43,12.31,12.31,0,0,0-3-3.92,7.4,7.4,0,0,0-4.43-1.83,7.52,7.52,0,0,0-4.62,1.59,12.29,12.29,0,0,0-3.3,3.89A21.08,21.08,0,0,0,1088.44,365.27Zm0,0a22.67,22.67,0,0,1,2.24-10.1,13.05,13.05,0,0,1,3.18-4.18,8.17,8.17,0,0,1,4.94-2,8.37,8.37,0,0,1,5.13,1.77,13.24,13.24,0,0,1,3.5,4.14,22.46,22.46,0,0,1,0,20.75,13.06,13.06,0,0,1-3.51,4.14,8.35,8.35,0,0,1-5.12,1.77,8.2,8.2,0,0,1-4.94-2,12.91,12.91,0,0,1-3.18-4.17A22.67,22.67,0,0,1,1088.44,365.27Z"/><path class="cls-4" d="M435.51,265.3l97.49,0v-13H435.52v-49H539.74c-.63-4.46-1.23-8.67-1.83-12.87H421.1v2.13c0,30.25-.06,60.5.09,90.74a85.86,85.86,0,0,0,1.61,16.15c2.43,12.36,9.18,21.53,21.11,26.45a68,68,0,0,0,25.64,4.71c22.8.19,45.59.08,68.39.09.59,0,1.18-.09,1.87-.15.5-4.36,1-8.57,1.49-13h-3.15c-20.43,0-40.86.12-61.28-.07a129.52,129.52,0,0,1-18.55-1.53C446,314,438.13,306,436.5,294.44,435.16,285,435.51,274.88,435.51,265.3Z"/><path class="cls-4" d="M574.79,322.38c1.42-3.93,2.81-7.77,4.28-11.81,4.3,1.54,8.42,3.15,12.61,4.5,17.71,5.73,35.93,7.14,54.42,6.31,9.13-.41,18.12-1.49,26.68-4.86,7-2.75,12.91-6.82,15.72-14.13,4.63-12.07-.14-22.81-12.5-28.63-8.78-4.14-18.2-6-27.64-7.8-13.79-2.63-27.76-4.46-41.15-9-6.49-2.2-12.63-5.11-17.87-9.65-10.54-9.14-11.84-24.38-6.91-35.93,4.32-10.11,12.64-15.81,22.52-19.56,12-4.55,24.48-5.43,37.14-5.45a192.67,192.67,0,0,1,49,6.4c1.48.38,2.22.88,2.38,2.51.36,3.63.72,7.23,1,10.62-9.75-1.66-19.24-3.66-28.84-4.83-16.54-2-33.16-3-49.62.72-6.81,1.55-13.19,4.17-17.76,9.87a18.32,18.32,0,0,0,4.06,26.91c7.38,5.05,15.88,7.09,24.41,9,14.07,3.06,28.25,5.68,42.24,9,10,2.4,19.44,6.35,26.9,13.89,6.44,6.49,8.9,14.45,8.62,23.39-.58,18.67-11.52,29.27-28,35.22-14.73,5.32-30.09,5.92-45.57,5.45-18.51-.56-36.46-3.73-53.65-10.79a12.1,12.1,0,0,1-2.52-1.37"/><path class="cls-4" d="M736,322.38l4.27-11.81c4.31,1.54,8.42,3.15,12.62,4.5,17.71,5.73,35.93,7.14,54.42,6.31,9.12-.41,18.11-1.49,26.68-4.86,7-2.75,12.91-6.82,15.71-14.13,4.64-12.07-.14-22.81-12.5-28.63-8.78-4.14-18.2-6-27.63-7.8-13.8-2.63-27.77-4.46-41.15-9-6.5-2.2-12.63-5.11-17.87-9.65C740,238.2,738.66,223,743.59,211.41c4.32-10.11,12.64-15.81,22.52-19.56,12-4.55,24.49-5.43,37.14-5.45a192.61,192.61,0,0,1,49,6.4c1.49.38,2.23.88,2.39,2.51.35,3.63.72,7.23,1,10.62-9.76-1.66-19.25-3.66-28.84-4.83-16.55-2-33.16-3-49.63.72-6.8,1.55-13.19,4.17-17.75,9.87a18.31,18.31,0,0,0,4,26.91c7.39,5.05,15.89,7.09,24.42,9,14.06,3.06,28.24,5.68,42.24,9,10,2.4,19.43,6.35,26.9,13.89,6.43,6.49,8.89,14.45,8.61,23.39-.58,18.67-11.51,29.27-28,35.22-14.73,5.32-30.08,5.92-45.56,5.45-18.51-.56-36.47-3.73-53.66-10.79a12,12,0,0,1-2.51-1.37"/><path class="cls-4" d="M266.25,265.28v65.27h-14V190.41h14v61.28h99.85V190.47h14.17v140h-14v-65.2Z"/><path class="cls-4" d="M208.25,311.19c1.43,3.95,2.77,7.63,4.26,11.75-3.78,1.55-7.4,3.19-11.12,4.55a113,113,0,0,1-49.22,6.78c-19-1.7-35.83-8.41-48.9-22.89a66.68,66.68,0,0,1-16.21-33.56c-3.77-21-1.72-41.2,9.73-59.68,8.66-14,21.36-22.9,36.91-27.82,12.45-3.94,25.24-4.52,38.17-3.41a133,133,0,0,1,33.89,7.64,3.41,3.41,0,0,1,2,1.45,4.68,4.68,0,0,1,.44,1.83c.15,1.46.27,2.95.42,4.41s.29,2.93.43,4.4c.05.59.1,1.17.16,1.75-2.67-1-5.33-2-8-2.86s-5.32-1.63-8-2.32-5.39-1.29-8.11-1.81-5.45-1-8.2-1.28-5.53-.58-8.3-.74q-3.15-.16-6.3-.18c-14.3,0-27.8,2.93-39.55,11.59-12.9,9.52-19.74,22.65-22,38.27-1.56,10.84-1.22,21.68,2,32.22,6.56,21.18,21,33.93,42.46,38.82,11.08,2.53,22.26,2.06,33.42.39C188.92,318.94,198.62,315.56,208.25,311.19Z"/><path class="cls-3" d="M90.07,422V398.4q0-8,4.62-11.83t12-3.79q7.52,0,11.87,3.53a10.65,10.65,0,0,1,4.37,8.52,2.84,2.84,0,0,1-.49,1.93,2,2,0,0,1-1.55.52q-2,0-2-1.56a9.8,9.8,0,0,0-.61-2.94,13.52,13.52,0,0,0-1.71-3,7.8,7.8,0,0,0-3.72-2.53,17.83,17.83,0,0,0-6.12-.93q-12.57,0-12.56,12V422q0,12,12.81,12a17.57,17.57,0,0,0,5.1-.67,11.77,11.77,0,0,0,3.34-1.53,6.54,6.54,0,0,0,2-2.37,13.66,13.66,0,0,0,1-2.42,23.46,23.46,0,0,0,.49-2.46c.11-1,.76-1.56,2-1.56a2.2,2.2,0,0,1,1.63.52,3,3,0,0,1,.49,2q0,4.9-4.45,8.48t-12,3.57q-7.35,0-11.88-3.8C91.59,431.27,90.07,427.33,90.07,422Z"/><path class="cls-3" d="M135.12,422V398.4q0-8.11,4.44-11.87t12-3.75q7.42,0,11.95,3.75T168,398.4V422q0,8.11-4.53,11.86t-11.95,3.76q-7.52,0-12-3.76T135.12,422Zm4.08,0q0,12,12.32,12,6,0,9.18-3t3.22-9V398.4q0-6-3.22-9t-9.18-3q-12.33,0-12.32,12Z"/><path class="cls-3" d="M183.18,435.51V384.34a1.42,1.42,0,0,1,.49-1.11,1.84,1.84,0,0,1,1.31-.45h14q7.66,0,12.44,3.38t4.78,11q0,12.5-13.3,14.2l13.05,23a1.91,1.91,0,0,1,.25.9,1.72,1.72,0,0,1-.62,1.3,2.29,2.29,0,0,1-1.59.56c-.65,0-1.49-.87-2.53-2.61L198.6,411.78H187.26v23.73c0,1.09-.68,1.63-2,1.63S183.18,436.6,183.18,435.51Zm4.08-27.15h11.67q13.14,0,13.14-11.08t-13.14-10.93H187.26Z"/><path class="cls-3" d="M228.14,435.51V384.34q0-1.56,2-1.56c1,0,2.15,1,3.34,3.05l23.59,42.46v-44q0-1.56,2-1.56t2,1.56v51.17c0,1.09-.68,1.63-2,1.63-.87,0-1.85-.91-2.94-2.75l-24-42.84v44c0,1.09-.68,1.63-2,1.63S228.14,436.6,228.14,435.51Z"/><path class="cls-3" d="M276.94,435.51V384.42c0-1.09.65-1.64,1.95-1.64h29.05a1.52,1.52,0,0,1,1.72,1.71,1.93,1.93,0,0,1-.49,1.3,1.59,1.59,0,0,1-1.23.56H281v21.86h13a1.62,1.62,0,0,1,1.22.52,1.77,1.77,0,0,1,.49,1.27c0,1.09-.57,1.64-1.71,1.64H281v21.93h26.92a1.59,1.59,0,0,1,1.23.56,2,2,0,0,1,.49,1.3,1.52,1.52,0,0,1-1.72,1.71H278.89C277.59,437.14,276.94,436.6,276.94,435.51Z"/><path class="cls-3" d="M320.83,435.51V384.34q0-1.56,2-1.56t2,1.56v49.23H349c1,0,1.55.6,1.55,1.79s-.51,1.78-1.55,1.78H322.79C321.49,437.14,320.83,436.6,320.83,435.51Z"/><path class="cls-3" d="M361,435.51V384.34q0-1.56,2-1.56t2,1.56v49.23h24.07c1,0,1.55.6,1.55,1.79s-.52,1.78-1.55,1.78H362.94C361.63,437.14,361,436.6,361,435.51Z"/><path class="cls-3" d="M420.3,435.51V384.34q0-1.56,2-1.56t2,1.56v22.91h24.89V384.34q0-1.56,2-1.56t2,1.56v51.17c0,1.09-.68,1.63-2,1.63s-2-.54-2-1.63V410.67H424.38v24.84c0,1.09-.68,1.63-2,1.63S420.3,436.6,420.3,435.51Z"/><path class="cls-3" d="M469.1,435.51V384.34q0-1.56,2-1.56t2,1.56v51.17c0,1.09-.68,1.63-2,1.63S469.1,436.6,469.1,435.51Z"/><path class="cls-3" d="M488.35,422V398.4q0-8.11,4.45-11.87t11.87-3.75q7.59,0,12.08,3.53a11,11,0,0,1,4.49,9c0,1.29-.68,1.93-2,1.93s-2-.52-2-1.56q-1.39-9.37-12.4-9.37-12.33,0-12.33,12V422q0,12,12.33,12,6,0,9.18-3t3.22-9V412H505.08a1.5,1.5,0,0,1-1.18-.52,1.81,1.81,0,0,1,0-2.39,1.49,1.49,0,0,1,1.18-.51h14.45a1.64,1.64,0,0,1,1.22.51,1.74,1.74,0,0,1,.49,1.2V422q0,8.11-4.53,11.86t-12,3.76q-7.51,0-12-3.76T488.35,422Z"/><path class="cls-3" d="M535.52,435.51V384.34q0-1.56,2-1.56t2,1.56v22.91h24.89V384.34q0-1.56,2-1.56t2,1.56v51.17c0,1.09-.68,1.63-2,1.63s-2-.54-2-1.63V410.67H539.6v24.84c0,1.09-.68,1.63-2,1.63S535.52,436.6,535.52,435.51Z"/><path class="cls-3" d="M603.49,435.51V384.42c0-1.09.65-1.64,2-1.64h29a1.51,1.51,0,0,1,1.71,1.71,1.88,1.88,0,0,1-.49,1.3,1.57,1.57,0,0,1-1.22.56H607.57v21.86h13a1.65,1.65,0,0,1,1.23.52,1.82,1.82,0,0,1,.49,1.27c0,1.09-.57,1.64-1.72,1.64h-13v21.93H634.5a1.57,1.57,0,0,1,1.22.56,1.9,1.9,0,0,1,.49,1.3,1.51,1.51,0,0,1-1.71,1.71h-29C604.14,437.14,603.49,436.6,603.49,435.51Z"/><path class="cls-3" d="M647.39,435.51V384.34q0-1.56,2-1.56c1,0,2.15,1,3.34,3.05l23.59,42.46v-44q0-1.56,2-1.56c1.35,0,2,.52,2,1.56v51.17c0,1.09-.69,1.63-2,1.63-.87,0-1.85-.91-2.94-2.75l-24-42.84v44c0,1.09-.68,1.63-2,1.63S647.39,436.6,647.39,435.51Z"/><path class="cls-3" d="M696.19,435.51V384.42c0-1.09.65-1.64,1.95-1.64h29.05a1.52,1.52,0,0,1,1.72,1.71,1.93,1.93,0,0,1-.49,1.3,1.59,1.59,0,0,1-1.23.56H700.26v21.86h13a1.62,1.62,0,0,1,1.22.52A1.77,1.77,0,0,1,715,410c0,1.09-.57,1.64-1.71,1.64h-13v21.93h26.93a1.59,1.59,0,0,1,1.23.56,2,2,0,0,1,.49,1.3,1.52,1.52,0,0,1-1.72,1.71H698.14C696.84,437.14,696.19,436.6,696.19,435.51Z"/><path class="cls-3" d="M740.08,435.51V384.34a1.46,1.46,0,0,1,.49-1.11,1.86,1.86,0,0,1,1.31-.45h14q7.67,0,12.45,3.38t4.77,11q0,12.5-13.3,14.2l13.06,23a1.9,1.9,0,0,1,.24.9,1.71,1.71,0,0,1-.61,1.3,2.29,2.29,0,0,1-1.59.56c-.66,0-1.5-.87-2.53-2.61l-12.81-22.83H744.16v23.73c0,1.09-.68,1.63-2,1.63S740.08,436.6,740.08,435.51Zm4.08-27.15h11.67q13.14,0,13.14-11.08t-13.14-10.93H744.16Z"/><path class="cls-3" d="M784.47,422V398.4q0-8.11,4.45-11.87t11.87-3.75q7.59,0,12.08,3.53a11,11,0,0,1,4.49,9c0,1.29-.68,1.93-2,1.93s-2-.52-2-1.56q-1.39-9.37-12.4-9.37-12.33,0-12.33,12V422q0,12,12.33,12c4,0,7-1,9.17-3s3.23-5,3.23-9V412H801.2a1.49,1.49,0,0,1-1.18-.52,1.81,1.81,0,0,1,0-2.39,1.48,1.48,0,0,1,1.18-.51h14.44a1.64,1.64,0,0,1,1.23.51,1.74,1.74,0,0,1,.49,1.2V422q0,8.11-4.53,11.86t-12,3.76q-7.51,0-12-3.76T784.47,422Z"/><path class="cls-3" d="M826.91,384.42a1.39,1.39,0,0,1,.57-1.19,2.16,2.16,0,0,1,1.38-.45,2.28,2.28,0,0,1,1.88,1.34l15.67,28.63,15.75-28.63a2.15,2.15,0,0,1,1.87-1.34,1.92,1.92,0,0,1,1.27.45,1.47,1.47,0,0,1,.53,1.19,2.88,2.88,0,0,1-.33,1.41l-17,30.27a1.24,1.24,0,0,0-.08.52v18.89c0,1.09-.68,1.63-2,1.63s-2-.54-2-1.63V416.62a1.09,1.09,0,0,0-.17-.52l-16.89-30.27A4.26,4.26,0,0,1,826.91,384.42Z"/><path class="cls-3" d="M90.07,511.78a2.09,2.09,0,0,1,.62-1.41A1.8,1.8,0,0,1,92,509.7c.34,0,.83.33,1.49,1l2.23,2.16a11.15,11.15,0,0,0,4,2.15,19.22,19.22,0,0,0,6.4,1q6.36,0,9.75-2.83t3.38-8.32a11.24,11.24,0,0,0-2.06-6.92,11.62,11.62,0,0,0-5.12-3.94c-2-.8-4.26-1.61-6.65-2.46s-4.62-1.67-6.65-2.49a11.62,11.62,0,0,1-5.12-4.05,11.77,11.77,0,0,1-2.07-7.14,12.9,12.9,0,0,1,1.57-6.58,10.35,10.35,0,0,1,4.21-4.09,20.8,20.8,0,0,1,5.33-1.94,28.31,28.31,0,0,1,5.74-.55,31.21,31.21,0,0,1,9.21,1.3q4.26,1.31,4.26,2.94a2.4,2.4,0,0,1-.58,1.41A1.66,1.66,0,0,1,120,471a5.74,5.74,0,0,1-1.81-.7,23,23,0,0,0-9.83-2.12,17.53,17.53,0,0,0-9,2.12q-3.64,2.12-3.64,7.17a8.28,8.28,0,0,0,1.53,5.1,10.21,10.21,0,0,0,4,3.16,43.39,43.39,0,0,0,5.37,2q2.94.9,5.91,2a26.67,26.67,0,0,1,5.41,2.75,12.06,12.06,0,0,1,4,4.65,15.87,15.87,0,0,1,1.53,7.25q0,7.59-4.58,11.34t-12.27,3.76a22.91,22.91,0,0,1-11.77-2.75Q90.07,514,90.07,511.78Z"/><path class="cls-3" d="M130.47,466.35a1.42,1.42,0,0,1,.57-1.19,2.24,2.24,0,0,1,1.41-.45,2.32,2.32,0,0,1,1.9,1.34l15.86,28.63,15.94-28.63a2.17,2.17,0,0,1,1.9-1.34,1.94,1.94,0,0,1,1.28.45,1.47,1.47,0,0,1,.53,1.19,2.85,2.85,0,0,1-.33,1.41L152.35,498a1.24,1.24,0,0,0-.08.52v18.89c0,1.09-.69,1.63-2.06,1.63s-2.07-.54-2.07-1.63V498.55A1.1,1.1,0,0,0,148,498l-17.1-30.27A4,4,0,0,1,130.47,466.35Z"/><path class="cls-3" d="M179.86,517.44V466.27c0-1,.69-1.56,2.06-1.56q1.58,0,3.39,3.05l23.87,42.46v-44c0-1,.69-1.56,2.06-1.56s2.07.52,2.07,1.56v51.17c0,1.09-.69,1.63-2.07,1.63-.88,0-1.87-.91-3-2.75L184,473.49v44c0,1.09-.69,1.63-2.07,1.63S179.86,518.53,179.86,517.44Z"/><path class="cls-3" d="M227.43,503.9V480.33q0-8,4.67-11.83t12.18-3.79q7.6,0,12,3.53a10.59,10.59,0,0,1,4.42,8.52,2.89,2.89,0,0,1-.49,1.93,2.09,2.09,0,0,1-1.57.52q-2.07,0-2.07-1.56a9.23,9.23,0,0,0-.62-2.94,13.51,13.51,0,0,0-1.73-3,7.93,7.93,0,0,0-3.76-2.53,18.23,18.23,0,0,0-6.2-.93q-12.72,0-12.72,12.05V503.9q0,12,13,12.05a17.61,17.61,0,0,0,5.16-.67,12,12,0,0,0,3.39-1.52,6.52,6.52,0,0,0,2-2.38,13.86,13.86,0,0,0,1-2.42,21,21,0,0,0,.5-2.45c.11-1.05.77-1.57,2-1.57a2.28,2.28,0,0,1,1.66.52,3.06,3.06,0,0,1,.49,2q0,4.9-4.5,8.48T244,519.52q-7.44,0-12-3.79T227.43,503.9Z"/><path class="cls-3" d="M272.37,517.44V466.27c0-1,.68-1.56,2.06-1.56s2.07.52,2.07,1.56v22.91h25.19V466.27c0-1,.69-1.56,2.06-1.56s2.07.52,2.07,1.56v51.17c0,1.09-.69,1.63-2.07,1.63s-2.06-.54-2.06-1.63V492.6H276.5v24.84c0,1.09-.69,1.63-2.07,1.63S272.37,518.53,272.37,517.44Z"/><path class="cls-3" d="M320.52,517.44V466.27a1.43,1.43,0,0,1,.5-1.11,1.89,1.89,0,0,1,1.32-.45h14.12q7.77,0,12.6,3.39t4.83,11q0,12.5-13.46,14.2l13.21,23.06a1.74,1.74,0,0,1,.25.89,1.72,1.72,0,0,1-.62,1.3,2.32,2.32,0,0,1-1.61.56c-.66,0-1.52-.87-2.56-2.61l-13-22.83H324.65v23.73c0,1.09-.69,1.63-2.06,1.63S320.52,518.53,320.52,517.44Zm4.13-27.15h11.81q13.31,0,13.3-11.08t-13.3-10.93H324.65Z"/><path class="cls-3" d="M364.21,503.9V480.33q0-8.11,4.51-11.86t12.1-3.76q7.51,0,12.1,3.76t4.58,11.86V503.9q0,8.12-4.58,11.86t-12.1,3.76q-7.6,0-12.1-3.76T364.21,503.9Zm4.13,0q0,12,12.48,12.05,6,0,9.29-3t3.26-9V480.33q0-6-3.26-9t-9.29-3q-12.48,0-12.48,12.05Z"/><path class="cls-3" d="M405.18,467.76a1.88,1.88,0,0,1,0-2.53,1.66,1.66,0,0,1,1.24-.52h32.71a1.52,1.52,0,0,1,1.73,1.71c0,1.24-.58,1.86-1.73,1.86H424.92v49.16c0,1.09-.69,1.63-2.06,1.63s-2.07-.54-2.07-1.63V468.28H406.42A1.62,1.62,0,0,1,405.18,467.76Z"/><path class="cls-3" d="M450.28,517.44V466.27a1.43,1.43,0,0,1,.5-1.11,1.89,1.89,0,0,1,1.32-.45h14.12q7.77,0,12.6,3.39t4.83,11q0,12.5-13.46,14.2L483.4,516.4a1.74,1.74,0,0,1,.25.89,1.72,1.72,0,0,1-.62,1.3,2.32,2.32,0,0,1-1.61.56c-.66,0-1.52-.87-2.56-2.61l-13-22.83H454.41v23.73c0,1.09-.69,1.63-2.07,1.63S450.28,518.53,450.28,517.44Zm4.13-27.15h11.81q13.3,0,13.3-11.08t-13.3-10.93H454.41Z"/><path class="cls-3" d="M494,503.9V480.33q0-8.11,4.5-11.86t12.11-3.76q7.52,0,12.1,3.76t4.58,11.86V503.9q0,8.12-4.58,11.86t-12.1,3.76q-7.6,0-12.11-3.76T494,503.9Zm4.13,0q0,12,12.48,12.05,6,0,9.29-3t3.26-9V480.33q0-6-3.26-9t-9.29-3q-12.48,0-12.48,12.05Z"/><path class="cls-3" d="M541.38,517.44V466.27q0-1.56,2.07-1.56,1.56,0,3.39,3.05l23.87,42.46v-44c0-1,.68-1.56,2.06-1.56s2.06.52,2.06,1.56v51.17c0,1.09-.68,1.63-2.06,1.63-.88,0-1.87-.91-3-2.75l-24.29-42.83v44c0,1.09-.69,1.63-2.06,1.63S541.38,518.53,541.38,517.44Z"/><path class="cls-3" d="M604.41,511.78a2,2,0,0,1,.62-1.41,1.79,1.79,0,0,1,1.28-.67c.33,0,.82.33,1.48,1l2.23,2.16a11.15,11.15,0,0,0,4,2.15,19.22,19.22,0,0,0,6.4,1q6.36,0,9.75-2.83t3.39-8.32a11.24,11.24,0,0,0-2.07-6.92,11.57,11.57,0,0,0-5.12-3.94c-2-.8-4.26-1.61-6.65-2.46s-4.61-1.67-6.65-2.49a11.62,11.62,0,0,1-5.12-4.05,11.77,11.77,0,0,1-2.07-7.14,13,13,0,0,1,1.57-6.58,10.35,10.35,0,0,1,4.21-4.09,20.94,20.94,0,0,1,5.33-1.94,28.38,28.38,0,0,1,5.74-.55,31.21,31.21,0,0,1,9.21,1.3q4.26,1.31,4.26,2.94a2.4,2.4,0,0,1-.58,1.41,1.66,1.66,0,0,1-1.32.74,5.76,5.76,0,0,1-1.82-.7,22.87,22.87,0,0,0-9.83-2.12,17.53,17.53,0,0,0-9,2.12c-2.42,1.41-3.64,3.8-3.64,7.17a8.28,8.28,0,0,0,1.53,5.1,10.17,10.17,0,0,0,4,3.16,42.22,42.22,0,0,0,5.37,2q2.93.9,5.9,2a26.41,26.41,0,0,1,5.41,2.75,12,12,0,0,1,4,4.65,15.87,15.87,0,0,1,1.52,7.25q0,7.59-4.58,11.34c-3.06,2.51-7.14,3.76-12.27,3.76a22.93,22.93,0,0,1-11.77-2.75Q604.41,514,604.41,511.78Z"/><path class="cls-3" d="M649,503.9V480.33q0-8.11,4.5-11.86t12.1-3.76q7.51,0,12.1,3.76t4.59,11.86V503.9q0,8.12-4.59,11.86t-12.1,3.76q-7.59,0-12.1-3.76T649,503.9Zm4.13,0q0,12,12.47,12.05,6,0,9.29-3t3.27-9V480.33q0-6-3.27-9t-9.29-3q-12.47,0-12.47,12.05Z"/><path class="cls-3" d="M696.17,503.9V466.27q0-1.56,2.07-1.56c1.37,0,2.06.52,2.06,1.56V503.9q0,6,3.26,9t9.3,3q6,0,9.33-3t3.31-9V466.27c0-1,.68-1.56,2.06-1.56s2.06.52,2.06,1.56V503.9q0,8.12-4.58,11.86c-3,2.51-7.12,3.76-12.18,3.76s-9.12-1.25-12.14-3.76S696.17,509.31,696.17,503.9Z"/><path class="cls-3" d="M744.08,517.44V466.27a1.43,1.43,0,0,1,.5-1.11,1.89,1.89,0,0,1,1.32-.45H760q7.77,0,12.6,3.39t4.83,11q0,12.5-13.46,14.2L777.2,516.4a1.74,1.74,0,0,1,.25.89,1.72,1.72,0,0,1-.62,1.3,2.32,2.32,0,0,1-1.61.56c-.66,0-1.51-.87-2.56-2.61l-13-22.83H748.21v23.73c0,1.09-.69,1.63-2.06,1.63S744.08,518.53,744.08,517.44Zm4.13-27.15H760q13.31,0,13.3-11.08T760,468.28H748.21Z"/><path class="cls-3" d="M787.77,503.9V480.33q0-8,4.67-11.83t12.18-3.79q7.61,0,12,3.53a10.59,10.59,0,0,1,4.42,8.52,2.84,2.84,0,0,1-.49,1.93,2.09,2.09,0,0,1-1.57.52q-2.07,0-2.07-1.56a9.23,9.23,0,0,0-.62-2.94,13.51,13.51,0,0,0-1.73-3,7.88,7.88,0,0,0-3.76-2.53,18.23,18.23,0,0,0-6.2-.93q-12.72,0-12.72,12.05V503.9q0,12,13,12.05a17.68,17.68,0,0,0,5.17-.67,12.1,12.1,0,0,0,3.38-1.52,6.52,6.52,0,0,0,2-2.38,14.06,14.06,0,0,0,1-2.42,23.73,23.73,0,0,0,.49-2.45c.11-1.05.77-1.57,2-1.57a2.26,2.26,0,0,1,1.66.52,3,3,0,0,1,.49,2q0,4.9-4.5,8.48t-12.18,3.57q-7.44,0-12-3.79T787.77,503.9Z"/><path class="cls-3" d="M832.71,517.44V466.35c0-1.09.66-1.64,2-1.64h29.4a1.52,1.52,0,0,1,1.74,1.71,1.89,1.89,0,0,1-.5,1.3,1.56,1.56,0,0,1-1.24.56H836.83v21.87H850a1.64,1.64,0,0,1,1.24.52,1.73,1.73,0,0,1,.49,1.26c0,1.09-.58,1.64-1.73,1.64H836.83V515.5h27.26a1.59,1.59,0,0,1,1.24.56,1.91,1.91,0,0,1,.5,1.3,1.52,1.52,0,0,1-1.74,1.71h-29.4C833.37,519.07,832.71,518.53,832.71,517.44Z"/><path class="cls-6" d="M1343.17,356.53c1.43-9.19,7.8-14.26,14.22-11.33s10,13.15,8.56,22.33-7.64,13.52-14.06,10.59S1341.73,365.71,1343.17,356.53Z"/><path class="cls-4" d="M1345.24,350.17a1,1,0,0,0,.91.05.71.71,0,0,0,.7.49.76.76,0,0,0,.65-.72.69.69,0,0,0-.73-.72,1,1,0,0,0-.32-.73c-.39-.36-.81-.18-1.15.33S1344.78,349.89,1345.24,350.17Z"/><path class="cls-4" d="M1348.83,346.87a.76.76,0,0,0,.09,1,.81.81,0,0,0,1.29-1,.73.73,0,0,0-.64-.39l0-.05a1.06,1.06,0,0,0-.19-1.34,1,1,0,1,0-1.12,1.7A1.15,1.15,0,0,0,1348.83,346.87Z"/><path class="cls-4" d="M1353.84,346.86a1.08,1.08,0,0,0,1.23-.58,1,1,0,1,0-2-.56A1.06,1.06,0,0,0,1353.84,346.86Z"/><path class="cls-4" d="M1361.3,353.31a1,1,0,1,0-1.29-.49A1,1,0,0,0,1361.3,353.31Z"/><path class="cls-4" d="M1358.8,349.22a.93.93,0,0,0,0-1.42,1,1,0,0,0-1.43,0,1,1,0,0,0,1.42,1.44Z"/><path class="cls-4" d="M1361.61,357.12a1,1,0,1,0,1.87-.49,1,1,0,0,0-1.22-.73A1,1,0,0,0,1361.61,357.12Z"/><path class="cls-4" d="M1362.35,361.67a1,1,0,0,0,1,.95,1,1,0,0,0-.14-2A1,1,0,0,0,1362.35,361.67Z"/><path class="cls-4" d="M1363.3,365.39a1,1,0,0,0-.23,2,1,1,0,0,0,.23-2Z"/><path class="cls-4" d="M1362.47,370.11a1,1,0,1,0,.62,1.28A1,1,0,0,0,1362.47,370.11Z"/><path class="cls-4" d="M1360.57,374.5a1,1,0,0,0-1.21,1.63,1,1,0,0,0,1.21-1.63Z"/><path class="cls-4" d="M1357,377.23a1.06,1.06,0,0,0-.55,1.23,1,1,0,1,0,1.85-.82A1.08,1.08,0,0,0,1357,377.23Z"/><path class="cls-4" d="M1352.45,349.52a.86.86,0,0,0,1.12-.25.81.81,0,1,0-1.38-.85A.85.85,0,0,0,1352.45,349.52Z"/><path class="cls-4" d="M1355,351.94a.85.85,0,0,0,1.14.16.81.81,0,1,0-1-1.3A.86.86,0,0,0,1355,351.94Z"/><path class="cls-4" d="M1358.54,357.6a.84.84,0,0,0-.63,1,.85.85,0,0,0,1,.59.81.81,0,1,0-.38-1.57Z"/><path class="cls-4" d="M1357.84,355.51a.81.81,0,1,0-.64-1.49.84.84,0,0,0-.44,1.07A.86.86,0,0,0,1357.84,355.51Z"/><path class="cls-4" d="M1358.5,362.23a.82.82,0,0,0,.88.74.81.81,0,1,0-.13-1.62A.82.82,0,0,0,1358.5,362.23Z"/><path class="cls-4" d="M1359.41,365.17a.81.81,0,1,0-.12,1.62.81.81,0,0,0,.91-.75A.8.8,0,0,0,1359.41,365.17Z"/><path class="cls-4" d="M1357.79,372.6a.81.81,0,1,0-.74,1.44.81.81,0,1,0,.74-1.44Z"/><path class="cls-4" d="M1359.58,370a.8.8,0,0,0-.64-1,.86.86,0,0,0-1,.59.84.84,0,0,0,.61,1A.81.81,0,0,0,1359.58,370Z"/><path class="cls-4" d="M1355.14,376.09a.81.81,0,0,0-1.23,1.05.8.8,0,0,0,1.2.15A.82.82,0,0,0,1355.14,376.09Z"/><path class="cls-4" d="M1349.31,350.57a.78.78,0,0,0,.19,1,.77.77,0,0,0,1-.17.71.71,0,1,0-1.17-.79Z"/><path class="cls-4" d="M1352.6,353.91a.71.71,0,1,0-.8-1.16.73.73,0,0,0-.18,1A.72.72,0,0,0,1352.6,353.91Z"/><path class="cls-4" d="M1354.64,358.74a.73.73,0,0,0-.54.85.74.74,0,0,0,.87.52.7.7,0,1,0-.33-1.37Z"/><path class="cls-4" d="M1354.05,356.91a.7.7,0,1,0-.93-.38A.73.73,0,0,0,1354.05,356.91Z"/><path class="cls-4" d="M1354.64,362.78a.72.72,0,1,0,.63-.78A.73.73,0,0,0,1354.64,362.78Z"/><path class="cls-4" d="M1356.17,366.06a.69.69,0,0,0-.69-.73.71.71,0,1,0-.06,1.41A.69.69,0,0,0,1356.17,366.06Z"/><path class="cls-4" d="M1354.73,372.81a.7.7,0,0,0-.39-.95.73.73,0,0,0-.93.36.72.72,0,0,0,.36.93A.69.69,0,0,0,1354.73,372.81Z"/><path class="cls-4" d="M1354.91,370a.71.71,0,0,0,.86-.55.7.7,0,0,0-.58-.83.7.7,0,1,0-.28,1.38Z"/><path class="cls-4" d="M1351.28,374.9a.77.77,0,0,0,0,1,.71.71,0,1,0,1-1A.76.76,0,0,0,1351.28,374.9Z"/><path class="cls-4" d="M1346.42,352.72a.66.66,0,0,0,.12.82.64.64,0,0,0,.83-.08.6.6,0,1,0-.95-.74Z"/><path class="cls-4" d="M1349.08,355.72a.6.6,0,0,0,.2-.84.59.59,0,0,0-.85-.17.6.6,0,0,0,.65,1Z"/><path class="cls-4" d="M1349.8,357.19a.6.6,0,0,0,.45,1.12.61.61,0,0,0,.35-.79A.6.6,0,0,0,1349.8,357.19Z"/><path class="cls-4" d="M1350.3,360.6a.61.61,0,0,0,.72.44.6.6,0,1,0-.28-1.17A.61.61,0,0,0,1350.3,360.6Z"/><path class="cls-4" d="M1352.15,366.09a.59.59,0,0,0-.61-.6.62.62,0,0,0-.6.6.62.62,0,0,0,.6.6A.59.59,0,0,0,1352.15,366.09Z"/><path class="cls-4" d="M1351.44,363.85a.6.6,0,1,0-.14-1.19.6.6,0,0,0,.14,1.19Z"/><path class="cls-4" d="M1350.75,368.84a.61.61,0,0,0,.49.68.6.6,0,1,0-.49-.68Z"/><path class="cls-4" d="M1351.26,371.89a.62.62,0,0,0-.39-.78.6.6,0,1,0,.39.78Z"/><path class="cls-4" d="M1348.74,373.8a.67.67,0,0,0,.06.83.6.6,0,1,0,.76-.93A.65.65,0,0,0,1348.74,373.8Z"/><path class="cls-4" d="M1345,356.65a.5.5,0,0,0,.49.87.5.5,0,0,0-.49-.87Z"/><path class="cls-4" d="M1344.42,355.61a.48.48,0,0,0,0-.71.47.47,0,0,0-.71,0,.49.49,0,0,0,0,.67A.5.5,0,0,0,1344.42,355.61Z"/><path class="cls-4" d="M1346.09,358.76a.5.5,0,1,0,.64.3A.5.5,0,0,0,1346.09,358.76Z"/><path class="cls-4" d="M1346.49,361.6a.5.5,0,0,0,.59.37.48.48,0,0,0,.35-.6.49.49,0,0,0-.59-.37A.5.5,0,0,0,1346.49,361.6Z"/><path class="cls-4" d="M1346.94,363.87a.48.48,0,0,0,.53.43.5.5,0,0,0,.42-.57.51.51,0,0,0-.56-.42A.47.47,0,0,0,1346.94,363.87Z"/><path class="cls-4" d="M1347.15,366.17a.49.49,0,0,0,.5.48.48.48,0,0,0,.46-.52.48.48,0,1,0-1,0Z"/><path class="cls-4" d="M1347.14,371.33a.47.47,0,0,0,.59-.37.48.48,0,0,0-.36-.6.5.5,0,0,0-.23,1Z"/><path class="cls-4" d="M1348.08,368.55a.48.48,0,0,0-.45-.54.5.5,0,0,0-.51.47.5.5,0,0,0,.44.53A.48.48,0,0,0,1348.08,368.55Z"/><path class="cls-4" d="M1346.86,373.3a.49.49,0,0,0-.19-.69.5.5,0,0,0-.64.2.52.52,0,0,0,.14.66A.47.47,0,0,0,1346.86,373.3Z"/></svg>